<?xml version="1.0" encoding="utf-8"?>
<!-- Generator: Adobe Illustrator 24.2.3, SVG Export Plug-In . SVG Version: 6.00 Build 0)  -->
<svg version="1.1" id="Capa_1" xmlns="http://www.w3.org/2000/svg" xmlns:xlink="http://www.w3.org/1999/xlink" x="0px" y="0px"
	 viewBox="0 0 1085.6 150" style="enable-background:new 0 0 1085.6 150;" xml:space="preserve">
<style type="text/css">
	.st0{clip-path:url(#SVGID_2_);fill:none;}
	.st1{clip-path:url(#SVGID_2_);fill:#008BEB;}
	.st2{clip-path:url(#SVGID_2_);fill:#0077E3;}
	.st3{clip-path:url(#SVGID_2_);}
	.st4{fill:#0077E3;}
	.st5{clip-path:url(#SVGID_2_);fill:#FFFFFF;}
	.st6{clip-path:url(#SVGID_2_);fill:#FFCBDB;}
</style>
<g>
	<defs>
		<rect id="SVGID_1_" x="34.5" y="21" width="1016.5" height="110"/>
	</defs>
	<clipPath id="SVGID_2_">
		<use xlink:href="#SVGID_1_"  style="overflow:visible;"/>
	</clipPath>
	<g style="opacity:0.33;clip-path:url(#SVGID_2_);enable-background:new    ;">
		
			<image style="overflow:visible;" width="1119" height="567" xlink:href="F6B67D29.png"  transform="matrix(1 0 0 1 -10 -185.8898)">
		</image>
	</g>
	<path class="st0" d="M982.1,322.6H103.4c-38,0-68.9-30.8-68.9-68.9V-72.9c0-38,30.8-68.9,68.9-68.9h878.7c38,0,68.9,30.8,68.9,68.9
		v326.6C1051,291.8,1020.2,322.6,982.1,322.6z"/>
	<rect x="-26.4" y="-383.1" class="st1" width="1118.9" height="1582.4"/>
	<path class="st0" d="M982.1,322.6H103.4c-38,0-68.9-30.8-68.9-68.9V-72.9c0-38,30.8-68.9,68.9-68.9h878.7c38,0,68.9,30.8,68.9,68.9
		v326.6C1051,291.8,1020.2,322.6,982.1,322.6z"/>
	<polygon class="st2" points="850.6,-18.2 257,575.5 1444.3,575.5 	"/>
	<g class="st3">
		<polygon class="st4" points="-8.8,90.1 830.8,90.1 -8.8,-749.5 		"/>
	</g>
	<path class="st5" d="M936.3-360.5L936.3-360.5L936.3-360.5c-152.2,152.2-152.2,398.9,0,551.1l0,0L1211.9-85l275.5-275.5l0,0
		C1335.3-512.7,1088.5-512.7,936.3-360.5z"/>
	<path class="st6" d="M54.6,9.4L54.6,9.4L54.6,9.4c-215.2,0-389.7,174.5-389.7,389.7l0,0H54.6h389.7l0,0
		C444.3,183.9,269.8,9.4,54.6,9.4z"/>
</g>
</svg>
