<?xml version="1.0" encoding="utf-8"?>
<!-- Generator: Adobe Illustrator 24.2.3, SVG Export Plug-In . SVG Version: 6.00 Build 0)  -->
<svg version="1.1" id="Capa_1" xmlns="http://www.w3.org/2000/svg" xmlns:xlink="http://www.w3.org/1999/xlink" x="0px" y="0px"
	 viewBox="0 0 384 384" style="enable-background:new 0 0 384 384;" xml:space="preserve">
<style type="text/css">
	.st0{fill:#FFFFFF;}
</style>
<g>
	<path class="st0" d="M384,144.7c0,79.7,0,159.5,0,239.3c-127.9,0-255.8,0-384,0c0-79.7,0-159.5,0-239.3c0.2,0.8,0.5,1.6,0.6,2.5
		c1.9,21.4,9.9,40.6,21.7,58.3C38,229.3,58,249.3,79.5,267.6c33.8,28.9,68.2,57.1,102.4,85.5c6.6,5.5,13.9,5.2,20.8-0.4
		c26.5-21.8,53.1-43.6,79.5-65.6c23.6-19.7,46.7-40,66.4-63.8c14-16.9,25.6-35.1,31.2-56.6C381.6,159.5,382.6,152.1,384,144.7z"/>
	<path d="M384,144.7c-1.4,7.3-2.4,14.8-4.3,22c-5.6,21.5-17.2,39.7-31.2,56.6c-19.7,23.8-42.8,44.1-66.4,63.8
		c-26.4,22-53,43.8-79.5,65.6c-6.9,5.7-14.2,5.9-20.8,0.4c-34.2-28.4-68.6-56.6-102.4-85.5C58,249.3,38,229.3,22.3,205.6
		c-11.8-17.7-19.8-36.9-21.7-58.3c-0.1-0.8-0.4-1.7-0.6-2.5c0-6.3,0-12.5,0-18.8c0.2-1,0.5-1.9,0.7-2.9c2-9.2,3.2-18.8,6.2-27.7
		C23.2,47,70,19.5,120.3,28.6c25.6,4.6,45.8,18.4,61.8,38.6c3.5,4.4,6.6,9,9.9,13.7c3.4-4.7,6.4-9.4,9.9-13.7
		c27.5-33.8,62.7-47.3,105.2-37c39.6,9.6,62.5,36.8,73,75.2c1.8,6.7,2.6,13.7,3.8,20.5C384,132.2,384,138.5,384,144.7z M191.8,322.4
		c0.7-0.4,1-0.5,1.3-0.8c31.4-26.2,63-52.1,94-78.6c18.2-15.5,35-32.5,48.5-52.4c17.4-25.7,23.4-53.3,13.7-83.3
		c-18.3-56.5-82.2-63.7-115.7-30.5c-12.3,12.2-20.9,26.6-26.8,42.8c-1.1,3-2.6,6.1-4.8,8.3c-7.9,7.8-20.6,4.3-24.4-6.5
		c-5.7-16.1-13.8-30.8-25.8-43C119,44.8,64.6,51.2,41.6,91.6c-13.2,23.2-15.3,47.8-6.6,73.1c7,20.4,20.2,36.9,34.8,52.4
		c19.2,20.4,40.7,38.4,62.3,56.3C151.9,289.7,171.8,305.9,191.8,322.4z"/>
	<path class="st0" d="M384,126c-1.2-6.9-2-13.8-3.8-20.5c-10.5-38.5-33.4-65.7-73-75.2c-42.5-10.3-77.7,3.2-105.2,37
		c-3.5,4.3-6.6,9-9.9,13.7c-3.4-4.7-6.5-9.3-9.9-13.7c-16-20.2-36.2-34-61.8-38.6C70,19.5,23.2,47,6.9,95.4
		c-3,8.9-4.2,18.4-6.2,27.7c-0.2,1-0.5,1.9-0.7,2.9C0,84,0,42,0,0c128,0,256,0,384,0C384,42,384,84,384,126z"/>
	<path class="st0" d="M191.8,322.4c-20-16.5-40-32.7-59.8-49.2C110.5,255.4,89,237.4,69.8,217C55.2,201.5,42,185.1,35,164.6
		c-8.6-25.3-6.6-49.9,6.6-73.1C64.6,51.2,119,44.8,151.9,78.3c12,12.3,20.1,26.9,25.8,43c3.8,10.9,16.6,14.3,24.4,6.5
		c2.2-2.2,3.7-5.3,4.8-8.3c5.9-16.2,14.5-30.6,26.8-42.8c33.5-33.2,97.5-26,115.7,30.5c9.7,30,3.7,57.7-13.7,83.3
		c-13.5,19.9-30.4,36.9-48.5,52.4c-31.1,26.5-62.7,52.5-94,78.6C192.9,321.9,192.5,322,191.8,322.4z"/>
</g>
</svg>
