<svg id="Capa_1" data-name="Capa 1" xmlns="http://www.w3.org/2000/svg" viewBox="0 0 177.28 109.02"><defs><style>.cls-1{fill:#3461fb;}</style></defs><path class="cls-1" d="M126.11,124.4a23.65,23.65,0,0,0,8.88,1.66,22.66,22.66,0,0,0,17.14-7.55,25.48,25.48,0,0,0,4.86-8.26,30.71,30.71,0,0,0,0-20.38,27.13,27.13,0,0,0-4.86-8.47,22.68,22.68,0,0,0-7.51-5.77A21.92,21.92,0,0,0,135,73.51,25.8,25.8,0,0,0,126.07,75,37.87,37.87,0,0,0,118.23,79a10.27,10.27,0,0,1-2.41,1.29,5.74,5.74,0,0,1-1.83.37c-2.21,0-4.1-1.36-5.64-4.07L101,64A5.77,5.77,0,0,1,100,61,5.88,5.88,0,0,1,101,57.36a9.75,9.75,0,0,1,2.9-2.53l-.25.25a52.06,52.06,0,0,1,14.4-7.14,55.54,55.54,0,0,1,16.73-2.41,53.88,53.88,0,0,1,38.27,15.74,52.5,52.5,0,0,1,8.47,11A55.57,55.57,0,0,1,187,85.3a56.16,56.16,0,0,1,0,29.34,55.86,55.86,0,0,1-5.44,13.07,51.64,51.64,0,0,1-8.47,11,55.66,55.66,0,0,1-11,8.47,52.83,52.83,0,0,1-12.91,5.44,54.08,54.08,0,0,1-14.4,1.91,51,51,0,0,1-17.14-2.86,62.46,62.46,0,0,1-14.9-7.6,15.52,15.52,0,0,1-2.61-2.12,4.21,4.21,0,0,1-1.2-3.11,3.45,3.45,0,0,1,.37-1.33,12.15,12.15,0,0,1,.79-1.49l9.3-14a6.92,6.92,0,0,1,2.41-2.49,5.64,5.64,0,0,1,2.57-.58,8.7,8.7,0,0,1,1.62.21,5.74,5.74,0,0,1,2.2,1A39.69,39.69,0,0,0,126.11,124.4Z" transform="translate(-11.67 -45.53)"/><path class="cls-1" d="M116.39,78.54a54.72,54.72,0,0,0-11.62-17.26A54.14,54.14,0,0,0,66.29,45.55a55.68,55.68,0,0,0-14.65,1.91,54.51,54.51,0,0,0-13.07,5.4,52.11,52.11,0,0,0-11,8.43,53.85,53.85,0,0,0-13.95,24,55.3,55.3,0,0,0,5.48,42.41A53.87,53.87,0,0,0,38.57,147.2a54.14,54.14,0,0,0,13.07,5.44,55.68,55.68,0,0,0,14.65,1.91,54.2,54.2,0,0,0,27.47-7.35,53.31,53.31,0,0,0,11-8.47,54,54,0,0,0,8.47-11,55.47,55.47,0,0,0,5.48-13.07,54.47,54.47,0,0,0,2-14.65A53.69,53.69,0,0,0,116.39,78.54ZM78.75,101.75l-15.6,15.6a2.89,2.89,0,0,1-4.94-2V84.11a2.89,2.89,0,0,1,4.94-2l15.6,15.6A2.88,2.88,0,0,1,78.75,101.75Z" transform="translate(-11.67 -45.53)"/></svg>