<svg xmlns="http://www.w3.org/2000/svg" viewBox="0 0 417.75 405.08"><defs><style>.cls-1{fill:#407bff;}.cls-10,.cls-16,.cls-2,.cls-5{fill:#fff;}.cls-2{opacity:0.9;}.cls-3{fill:#f5f5f5;}.cls-4{fill:#263238;}.cls-5,.cls-9{opacity:0.4;}.cls-17,.cls-22,.cls-31,.cls-6{opacity:0.3;}.cls-7{opacity:0.5;}.cls-12,.cls-15,.cls-19,.cls-27,.cls-8{opacity:0.2;}.cls-19,.cls-27,.cls-8{isolation:isolate;}.cls-11{fill:#b97964;}.cls-13{fill:#ebb373;}.cls-14{fill:#e4873e;}.cls-15,.cls-17,.cls-20,.cls-23,.cls-25,.cls-26,.cls-31{fill:none;}.cls-15,.cls-17,.cls-31{stroke:#000;}.cls-15,.cls-23,.cls-25,.cls-31{stroke-linecap:round;stroke-linejoin:round;}.cls-15,.cls-20,.cls-23,.cls-25{stroke-width:0.5px;}.cls-16{opacity:0.7;}.cls-17,.cls-20,.cls-26{stroke-miterlimit:10;}.cls-17,.cls-26,.cls-31{stroke-width:0.25px;}.cls-18{fill:#c15854;}.cls-20{stroke:#fff;}.cls-21{fill:#eec1bb;}.cls-23,.cls-26{stroke:#407bff;}.cls-24{fill:#d8847c;}.cls-25{stroke:#263238;}.cls-27{fill:#2e353a;}.cls-28{fill:#895555;}.cls-29{fill:#a24e3f;}.cls-30{fill:#e0e0e0;}.cls-32{fill:#6d3939;}</style></defs><g id="Background_simple" data-name="Background simple"><path class="cls-1" d="M178.35,66.81c-25.29,3.76-49.67,11.78-71.3,24.35C81.56,106,55.52,129.07,63.21,159.27,77.41,215,145.54,216,131.93,253.52,116.53,296,126.86,345.79,196,359.64,327.31,386,486.05,232,441.46,147.44,413.71,94.78,312.61,46.81,178.35,66.81Z" transform="translate(-40.3 -62.17)"/><path class="cls-2" d="M178.35,66.81c-25.29,3.76-49.67,11.78-71.3,24.35C81.56,106,55.52,129.07,63.21,159.27,77.41,215,145.54,216,131.93,253.52,116.53,296,126.86,345.79,196,359.64,327.31,386,486.05,232,441.46,147.44,413.71,94.78,312.61,46.81,178.35,66.81Z" transform="translate(-40.3 -62.17)"/></g><g id="Shadow"><path class="cls-3" d="M458.05,461.12c0,3.39-93.51,6.13-208.87,6.13S40.3,464.51,40.3,461.12,133.82,455,249.18,455,458.05,457.73,458.05,461.12Z" transform="translate(-40.3 -62.17)"/></g><g id="Characters"><path class="cls-1" d="M195.93,140.12a5.17,5.17,0,0,0-2.37-3.39,14.85,14.85,0,0,0-3.91-1.66c-4.27-1.33-8.57-2.55-12.88-3.76-5.6-1.58-11.29-3.18-17.11-3.27a12.65,12.65,0,0,0-6.52,1.28c-2.84,1.62-4.39,4.94-4.65,8.19a25.74,25.74,0,0,0,1.55,9.61l-.12,2.41c13.35,1.95,27.32,2.06,39.94-2.68a12.76,12.76,0,0,0,4.29-2.36A5.12,5.12,0,0,0,195.93,140.12Z" transform="translate(-40.3 -62.17)"/><path class="cls-1" d="M203.29,141.73s8.24-1,13,6.11,16.62,28.66,16.62,28.66l35.23-1.85L271.57,193s-31.87,9.51-43.52,6-21.27-24.11-21.27-24.11Z" transform="translate(-40.3 -62.17)"/><path class="cls-1" d="M151.34,143.19s-11.67,1-15.38,17.18c-2.7,11.77-9.78,36.45-9.78,36.45l-21.46,22.4,3.56,11.67s28.48-15.64,31.56-19.59,12.07-26,12.07-26Z" transform="translate(-40.3 -62.17)"/><polygon class="cls-4" points="170.6 357.07 167.77 383.33 176.41 384.63 185.5 359.96 170.6 357.07"/><path class="cls-1" d="M223.57,440.37c.14-1.6,0-2.94-1.68-3l-2.44-.14a4.16,4.16,0,0,0-2.32,1.13c-5.58,3.88-7.87-1.13-10-1.13-2.79,0-1,8.89-1.13,9.36l-3,10.32c-.26.87.27,2.73,1.2,3a1.68,1.68,0,0,0,.5.07h32.24c5.12,0,5.18-6.28,3.07-6.73-9.5-2-13.24-5.06-16.37-7.33A44.61,44.61,0,0,1,223.57,440.37Z" transform="translate(-40.3 -62.17)"/><path class="cls-5" d="M236.87,459.92H204.63a1.68,1.68,0,0,1-.5-.07c-.63-.16-1.07-1.07-1.21-1.91v-.79h38A4.05,4.05,0,0,1,236.87,459.92Z" transform="translate(-40.3 -62.17)"/><path class="cls-4" d="M228,449.07a9.17,9.17,0,0,0-2,2.67.39.39,0,0,0,.13.52.37.37,0,0,0,.51-.14,8.64,8.64,0,0,1,1.89-2.52.37.37,0,0,0-.53-.53Z" transform="translate(-40.3 -62.17)"/><path class="cls-4" d="M225.08,447.27a10,10,0,0,0-1.9,2.49.37.37,0,1,0,.64.37,9.65,9.65,0,0,1,1.79-2.33.37.37,0,1,0-.53-.53Z" transform="translate(-40.3 -62.17)"/><path class="cls-4" d="M223.05,445.65a4.19,4.19,0,0,0-1.77,1.86.37.37,0,0,0,.64.38,5.39,5.39,0,0,1,.3-.52l.08-.11s.06-.09,0,0l0-.05a2.2,2.2,0,0,1,.2-.23c.06-.07.13-.13.2-.2l.11-.1s.11-.06.12-.09,0,0,0,0l.06,0,.13-.09a2.26,2.26,0,0,1,.26-.16.37.37,0,0,0,.13-.51.38.38,0,0,0-.51-.13Z" transform="translate(-40.3 -62.17)"/><path class="cls-4" d="M223.24,442.32a6.93,6.93,0,0,0-2.62.53.4.4,0,0,0-.27.46.38.38,0,0,0,.47.26,6.51,6.51,0,0,1,2.42-.5.38.38,0,0,0,.37-.38.37.37,0,0,0-.37-.37Z" transform="translate(-40.3 -62.17)"/><g class="cls-6"><path d="M214.16,443.48a2.76,2.76,0,0,1-1.19,2.36,3.33,3.33,0,0,1-1.69.24l-5.13-.15,0-.05c-.27-2.43-1-8.36,1.13-8.35,1.67,0,3.42,3.4,6.91,2.4C214.14,441.22,214.19,442.86,214.16,443.48Z" transform="translate(-40.3 -62.17)"/></g><path class="cls-4" d="M154.46,236.54l38,1.17,24.68.65s19.41,80.58,21,95.77S227.33,436.5,227.33,436.5l-22.52-1.45s5.1-86.73,3.46-94.94c-1.44-7.16-17.29-53.06-21.34-64.73-.41,2.39-.83,4.79-1.25,7.17-1,10.76-4.31,45.07-5.74,57.84,0,0-3.11,72.93-5.48,95.51l-18.88,0c-3.73-31.48-5.33-137.08-5.33-137.08h0C148.85,275.92,154.46,236.54,154.46,236.54Z" transform="translate(-40.3 -62.17)"/><g class="cls-7"><path d="M206.17,242.63a23.8,23.8,0,0,0,15.43,16.24c.4.12.23.78-.16.65a24.48,24.48,0,0,1-15.89-16.71.32.32,0,1,1,.62-.18Z" transform="translate(-40.3 -62.17)"/><path d="M186.29,242.63q.65,10.17,1.28,20.35a.32.32,0,1,0,.64,0c-.23-3.48-.44-7-.66-10.46,1.57,1.3,3.41-.27,3.92-2a18,18,0,0,0-.13-8.92c-.1-.43-.72-.24-.62.17a20.24,20.24,0,0,1,.53,6,8.65,8.65,0,0,1-.61,3.15c-.5,1-1.77,1.93-2.79,1a.28.28,0,0,0-.34,0c-.2-3.08-.39-6.16-.59-9.23A.32.32,0,1,0,186.29,242.63Z" transform="translate(-40.3 -62.17)"/><path d="M167.57,243.78c.09,9-6.41,16.52-14.81,17.23-.4,0-.4-.64,0-.67,8.06-.68,14.27-8,14.18-16.56a.32.32,0,1,1,.63,0Z" transform="translate(-40.3 -62.17)"/><path d="M160.63,343.6a12.3,12.3,0,0,1-8.72,0c-.41-.15-.24-.82.18-.67a11.75,11.75,0,0,0,8.36-.05c.41-.16.58.52.18.67Z" transform="translate(-40.3 -62.17)"/></g><path class="cls-1" d="M215.86,227.45l-5.94-65.3-6.63-20.42c-5.77-.36-29-3.15-52.53,1.57l.16,90.44s-3.65,6.54,3.81,6.15c31,3.33,61.3-1.53,61.3-1.53C219.36,237.25,219.36,232.89,215.86,227.45Z" transform="translate(-40.3 -62.17)"/><path class="cls-8" d="M150.85,193.59,151.92,166s-3.56,16.06-2.53,20.78S150.85,193.59,150.85,193.59Z" transform="translate(-40.3 -62.17)"/><polygon class="cls-4" points="133.4 358.91 129.73 385.86 120.95 386.3 118.1 360.32 133.4 358.91"/><path class="cls-1" d="M153.77,460.54h19.65s.42-.83-.07-3c-.07-.35-.17-.72-.29-1.13a.14.14,0,0,1,0-.06c-.19-.61-.4-1.36-.62-2.17a86.29,86.29,0,0,1-1.51-10.85s-3.72-3.73-7.54-2c-3.35,1.53-2.83,3.47-2.83,3.47s-.06,5-2.6,7.29c-1.57,1.41-3.14,2.49-3.89,4.24a5.38,5.38,0,0,0-.33,1.05l0,.14A8.44,8.44,0,0,0,153.77,460.54Z" transform="translate(-40.3 -62.17)"/><g class="cls-9"><path class="cls-10" d="M173.35,457.52c.49,2.19.07,3,.07,3H153.77a8.44,8.44,0,0,1-.08-3Z" transform="translate(-40.3 -62.17)"/></g><path class="cls-4" d="M161.6,448.35a2.64,2.64,0,0,1,3.55.22c.27.26.68-.15.41-.41a3.23,3.23,0,0,0-4.37-.22c-.29.23.12.64.41.41Z" transform="translate(-40.3 -62.17)"/><path class="cls-4" d="M161.05,450.18a2.64,2.64,0,0,1,3.55.22c.26.26.67-.15.41-.41a3.25,3.25,0,0,0-4.37-.22c-.3.23.12.64.41.41Z" transform="translate(-40.3 -62.17)"/><path class="cls-4" d="M160.49,451.87a2.64,2.64,0,0,1,3.55.22c.27.26.68-.15.41-.41a3.23,3.23,0,0,0-4.37-.22c-.29.23.12.64.41.41Z" transform="translate(-40.3 -62.17)"/><path class="cls-11" d="M211.41,188.89s-6.65,3.15-7.24,5.09,2.25,1.39,2.25,1.39-3.09.79-2.94,2.15c.19,1.63,3.17,1,3.17,1s-2.5.75-2.28,1.94,3.63.83,3.63.83-1.66.86-1,1.61,7.87,0,9.8-1.65.7-10.93-.05-12.87c-.24-.62-.87-1.65-4.47-2.07l-.65,2.43Z" transform="translate(-40.3 -62.17)"/><path class="cls-12" d="M206.45,195.52h0l5.32-1.63a.14.14,0,0,0,.09-.19.13.13,0,0,0-.17-.1l-5.32,1.63a.14.14,0,0,0-.09.18A.13.13,0,0,0,206.45,195.52Z" transform="translate(-40.3 -62.17)"/><path class="cls-12" d="M206.83,198.69h0l5.24-1.16a.14.14,0,0,0,.1-.18c0-.08-.07-.12-.16-.12l-5.24,1.16a.15.15,0,0,0-.1.18A.15.15,0,0,0,206.83,198.69Z" transform="translate(-40.3 -62.17)"/><path class="cls-12" d="M208.21,201.46l3.92-.75a.15.15,0,0,0,.1-.18.13.13,0,0,0-.16-.12l-3.92.75a.14.14,0,0,0-.1.17A.15.15,0,0,0,208.21,201.46Z" transform="translate(-40.3 -62.17)"/><path class="cls-8" d="M168.57,141s-10.26-3.42-10.95-6.46,2.14-3.61,5.25-3.35a35.42,35.42,0,0,1,6.43,1.16Z" transform="translate(-40.3 -62.17)"/><path class="cls-13" d="M167.5,140.52s2.62-8-1.69-19.92c1.38-.93-1.06-3.7-1.19-4.94l17.29,9.2c-.14,3.91,1.75,11.33,2.78,14.45l-5.15,6.35Z" transform="translate(-40.3 -62.17)"/><path class="cls-12" d="M182.55,130.3l-9.71-1.53c1.06,2.92,3.93,6.27,10.6,6.13A29.36,29.36,0,0,1,182.55,130.3Z" transform="translate(-40.3 -62.17)"/><path class="cls-4" d="M192.83,94.52c2.2,3.72,1.81,13.31-4.43,11.94S189,88.12,192.83,94.52Z" transform="translate(-40.3 -62.17)"/><path class="cls-13" d="M164,107.59c1.8,10.47,2.61,16.41,8.53,21.18C198,144.54,203,97.12,182.27,90.84A14.65,14.65,0,0,0,164,107.59Z" transform="translate(-40.3 -62.17)"/><path class="cls-4" d="M158,93.69C161,84.3,176.6,87.44,181,90c.66.38-7.49,5.65-7,5.4l-3.91,1.85c-5.34,1.66,2.19,11.1-3.5,19C157.44,113.39,156.07,100.59,158,93.69Z" transform="translate(-40.3 -62.17)"/><path class="cls-13" d="M160.77,116.83c1.85,5.51,11.44,8.51,10.22.29C170.28,109.11,158.38,107.14,160.77,116.83Z" transform="translate(-40.3 -62.17)"/><path class="cls-4" d="M178.09,109c.26,2.55,2.86,2.21,2.55-.31S177.78,106.46,178.09,109Z" transform="translate(-40.3 -62.17)"/><path class="cls-4" d="M189,108c.26,2.55,2.86,2.21,2.55-.31S188.68,105.51,189,108Z" transform="translate(-40.3 -62.17)"/><path class="cls-14" d="M186.48,107.81s4,5,5.34,7c-1.35,1.52-4,1.18-4,1.18Z" transform="translate(-40.3 -62.17)"/><path class="cls-4" d="M176.2,104.18a.49.49,0,0,0,.49-.12,4.12,4.12,0,0,1,3.49-1.21c2.22-1-1.89-2-4.19.49A.5.5,0,0,0,176.2,104.18Z" transform="translate(-40.3 -62.17)"/><path class="cls-15" d="M162.86,113.65c1.76-2.44,4.85.45,5.16,2.63" transform="translate(-40.3 -62.17)"/><path class="cls-4" d="M194.16,103a.52.52,0,0,0,.16-.88,5,5,0,0,0-4.52-1,.51.51,0,0,0,.32,1C190.46,101.7,192.41,102.07,194.16,103Z" transform="translate(-40.3 -62.17)"/><path class="cls-4" d="M159.41,109.78s8.62-8.73,17.89-11.92c10.25-3.52,16.87-.83,16.87-.83s1.87-1.3,1-2.37a1.57,1.57,0,0,0-2-.45s-8.24-12.44-20.85-11-17.86,8.13-17.47,8.76c2,3.16,4.15-.86,4.15-.86s-3.58,3.4-1.57,11.94l.47,3.29S156.47,109.78,159.41,109.78Z" transform="translate(-40.3 -62.17)"/><path class="cls-16" d="M159.41,109.78s8.62-8.73,17.89-11.92c10.25-3.52,16.87-.83,16.87-.83s1.87-1.3,1-2.37a1.57,1.57,0,0,0-2-.45s-8.24-12.44-20.85-11-17.86,8.13-17.47,8.76c2,3.16,4.15-.86,4.15-.86s-3.58,3.4-1.57,11.94l.47,3.29S156.47,109.78,159.41,109.78Z" transform="translate(-40.3 -62.17)"/><path class="cls-4" d="M177.57,97.45a3.5,3.5,0,0,0,2.8-2.69,9.09,9.09,0,0,0-.09-2.7,3.71,3.71,0,0,1,.51-2.6,2.22,2.22,0,0,1,2-.86A2.26,2.26,0,0,1,184.57,90a1.57,1.57,0,0,1,.59-1.63,4.62,4.62,0,0,1,1.68-.74,4.52,4.52,0,0,1,3.25-.13,3.63,3.63,0,0,1,1.67,2.74,6.26,6.26,0,0,1-.59,4.17,6.67,6.67,0,0,1-4.68,3,20,20,0,0,1-5.73-.08" transform="translate(-40.3 -62.17)"/><path class="cls-12" d="M158.51,91.69A12.05,12.05,0,0,1,166.67,86Z" transform="translate(-40.3 -62.17)"/><path class="cls-17" d="M158.52,106.14c4.66-6.27,13-11.69,20.54-13.76" transform="translate(-40.3 -62.17)"/><path class="cls-4" d="M186.38,119.64a31.87,31.87,0,0,0-2.61,3.72c-.25-.1-.5-.19-.74-.3-3.36-1.38-4.47-3.12-4.66-4.64a4.72,4.72,0,0,1,.28-2.2,4.55,4.55,0,0,1,.57-1.12c1.35,1.79,4.37,3.31,6,4.05C186,119.44,186.38,119.64,186.38,119.64Z" transform="translate(-40.3 -62.17)"/><path class="cls-10" d="M185.28,119.13l-.8,1.08c-3.14-1.3-5.19-2.63-5.79-4a4.26,4.26,0,0,1,.58-1.12C180.62,116.89,183.63,118.39,185.28,119.13Z" transform="translate(-40.3 -62.17)"/><path class="cls-18" d="M183.07,123c-3.36-1.38-4.47-3.12-4.66-4.64a11.75,11.75,0,0,1,3.43,2.26A4.45,4.45,0,0,1,183.07,123Z" transform="translate(-40.3 -62.17)"/><g class="cls-6"><path d="M159.72,223.18a17.25,17.25,0,0,0,10.19-17.27c0-.48-.8-.48-.75,0a16.57,16.57,0,0,1-9.82,16.63c-.44.18-.06.83.38.64Z" transform="translate(-40.3 -62.17)"/></g><g class="cls-6"><path d="M198.34,205.48a21.16,21.16,0,0,0,9.72,18.13c.41.26.78-.39.38-.64a20.4,20.4,0,0,1-9.35-17.49.38.38,0,0,0-.75,0Z" transform="translate(-40.3 -62.17)"/></g><path class="cls-8" d="M212.38,184.59s-2.74-28.91-2.8-28.67,3.41,11.42,3.84,18.73S212.38,184.59,212.38,184.59Z" transform="translate(-40.3 -62.17)"/><g class="cls-19"><path d="M149.2,143.64l.35,1a11.39,11.39,0,0,0,8.76,7.68,28,28,0,0,0,4.82.12C157.67,152.36,152.34,148.11,149.2,143.64Z" transform="translate(-40.3 -62.17)"/></g><path class="cls-8" d="M196,141s.41,2.48-3.76,6.05C192.22,147.08,196.31,146.05,196,141Z" transform="translate(-40.3 -62.17)"/><path class="cls-20" d="M181,146.71a14.81,14.81,0,0,0-7.7,7.17,2.91,2.91,0,0,0-.34,2.35c.49,1.13,2.17,1.27,3.19.58a6.45,6.45,0,0,0,2-3q1.49-3.66,3-7.32" transform="translate(-40.3 -62.17)"/><path class="cls-20" d="M181.16,146.55a18.9,18.9,0,0,0,3.25,7.25,5.1,5.1,0,0,0,3.22,2,2.57,2.57,0,0,0,1.91-.58,1.92,1.92,0,0,0,.61-1.85,3,3,0,0,0-.66-1.12,23.34,23.34,0,0,0-8.33-5.72" transform="translate(-40.3 -62.17)"/><path class="cls-20" d="M181,146.71c-2.25,9.32-2.23,20.9-1.48,30.47" transform="translate(-40.3 -62.17)"/><path class="cls-20" d="M181,146.71c0,7.69,2.54,20.76,3.92,28.32" transform="translate(-40.3 -62.17)"/><g class="cls-6"><path d="M183.22,235.94c8.74.6,15-.81,22.79-4.78-13.36,3.44-27.64,3.74-40.9-.07C165.11,231.09,175.63,235.42,183.22,235.94Z" transform="translate(-40.3 -62.17)"/></g><path class="cls-21" d="M287,198.54l5.7,32.29L302,263.35l-7,8s-13.13-30-14.82-37S276,203.07,276,203.07Z" transform="translate(-40.3 -62.17)"/><path class="cls-4" d="M276.09,176.26a11.23,11.23,0,0,1,4.57,3.51c2.25,2.75,13.16,19.55,13.16,19.55l-17.12,8Z" transform="translate(-40.3 -62.17)"/><path class="cls-22" d="M283,204.4a80.59,80.59,0,0,0,0-8.83,24.24,24.24,0,0,0-2-7.38s3.42,4.44,4.39,8.11,1.64,6.21,1.64,6.21Z" transform="translate(-40.3 -62.17)"/><polygon class="cls-21" points="206.48 386.79 216.84 385.68 219.01 358.42 203.22 359.95 206.48 386.79"/><path class="cls-4" d="M257.92,443.89h-3.7a2.63,2.63,0,0,0-2.11,1.1c-2.13,2.91-3.74,1.81-6.06-.93-1.47-.17-1.87,1.52-2,2l-2.77,10.07a1.59,1.59,0,0,0,1.09,2,1.76,1.76,0,0,0,.46.06h29.32c4.67,0,5.63-4.7,3.71-5.14-8.64-1.91-14.75-4.45-17.42-7C258,445.58,258.46,445.25,257.92,443.89Z" transform="translate(-40.3 -62.17)"/><path class="cls-1" d="M266,446.75a1.53,1.53,0,0,0,.63-1.21.67.67,0,0,0-.3-.65c-1.16-.82-5.79,1.34-6.31,1.59a.2.2,0,0,0-.12.13.2.2,0,0,0,.12.26,16.92,16.92,0,0,0,3.47.45A4.15,4.15,0,0,0,266,446.75Zm0-1.51a.28.28,0,0,1,.12.28,1.24,1.24,0,0,1-.46.88c-1,.78-3.59.44-4.95.19C262.62,445.74,265.35,444.79,266,445.24Z" transform="translate(-40.3 -62.17)"/><path class="cls-1" d="M260.13,446.92c1.39-.58,4.3-2.87,4.14-4.07,0-.26-.2-.56-.83-.65-2.54-.29-3.63,4.27-3.63,4.46a.22.22,0,0,0,.06.22H260Zm3.22-4.34c.48.05.48.22.48.28.13.73-2,2.63-3.5,3.43.32-1.06,1.25-3.72,2.85-3.72Z" transform="translate(-40.3 -62.17)"/><path class="cls-23" d="M260.49,446.74a4.5,4.5,0,0,0-3.14,2" transform="translate(-40.3 -62.17)"/><path class="cls-23" d="M262.79,448.47a4.5,4.5,0,0,0-3.14,2" transform="translate(-40.3 -62.17)"/><path class="cls-23" d="M265.65,449.93a4.46,4.46,0,0,0-3.14,2" transform="translate(-40.3 -62.17)"/><polygon class="cls-22" points="217.97 373.79 217.47 377.78 205.38 377.78 205.06 375.15 217.97 373.79"/><polygon class="cls-21" points="250.41 387.04 260.77 385.93 262.93 358.67 247.14 360.2 250.41 387.04"/><path class="cls-4" d="M302.14,444.09h-3.7a2.64,2.64,0,0,0-2.11,1.09c-2.13,2.92-3.74,1.82-6.06-.92-1.47-.17-1.87,1.52-2,2l-2.77,10.07a1.59,1.59,0,0,0,1.09,2,1.76,1.76,0,0,0,.46.06h29.32c4.67,0,5.63-4.7,3.71-5.14-8.64-1.91-14.75-4.45-17.42-7C302.17,445.78,302.68,445.45,302.14,444.09Z" transform="translate(-40.3 -62.17)"/><path class="cls-1" d="M310.17,447a1.53,1.53,0,0,0,.63-1.21.67.67,0,0,0-.3-.65c-1.16-.83-5.79,1.34-6.31,1.59a.2.2,0,0,0-.12.13.2.2,0,0,0,.12.26,16.24,16.24,0,0,0,3.47.44A4.07,4.07,0,0,0,310.17,447Zm0-1.51a.27.27,0,0,1,.12.27,1.24,1.24,0,0,1-.46.89c-1.05.78-3.59.44-4.95.19C306.84,445.94,309.57,445,310.21,445.44Z" transform="translate(-40.3 -62.17)"/><path class="cls-1" d="M304.35,447.12c1.39-.58,4.3-2.87,4.14-4.08,0-.25-.2-.55-.83-.64-2.54-.29-3.63,4.27-3.63,4.46a.22.22,0,0,0,.06.22h.15Zm3.22-4.34c.48.05.48.22.48.28.13.73-2,2.63-3.5,3.43.32-1.07,1.25-3.72,2.86-3.72Z" transform="translate(-40.3 -62.17)"/><path class="cls-23" d="M304.71,446.94a4.5,4.5,0,0,0-3.14,2" transform="translate(-40.3 -62.17)"/><path class="cls-23" d="M307,448.67a4.5,4.5,0,0,0-3.14,2" transform="translate(-40.3 -62.17)"/><path class="cls-23" d="M309.87,450.13a4.46,4.46,0,0,0-3.14,2" transform="translate(-40.3 -62.17)"/><polygon class="cls-22" points="261.46 377.2 261.28 379.52 249.54 379.88 249.22 377.25 261.46 377.2"/><path class="cls-4" d="M235.36,136.63a43.85,43.85,0,0,0-1.63,12.16c0,4.7,1.64,9,.42,13.65-1.43,5.39-3.12,15,3.35,18a9.58,9.58,0,0,0,5.32.51c6.3-.8,12.18-3.57,18.45-4.62,7.79-1.25,17,2.31,24.32-.8,2.77-1.17,5.39-6.59,5.59-9.85.25-3.7-3.18-6.34-5-9.16-1.33-2.13-4.81-4.82-5.35-7.27-.08-5,2.49-8.29.3-16.73-1.3-4-5.1-9.49-9.43-11.14-9.39-3.67-18.71,2.15-18.71,2.15C244.69,122.8,237.76,128.81,235.36,136.63Z" transform="translate(-40.3 -62.17)"/><path class="cls-4" d="M271.31,174.65l4.78,1.61S283,191,283,197.07s-2.91,38.87-2.91,38.87l-42.9-.82-2.34-15-3.18-20.36s6.23-11.66,3.67-22.43l2.56-1.39Z" transform="translate(-40.3 -62.17)"/><path class="cls-21" d="M262.8,171.18a4.53,4.53,0,0,1-1.43-4.47,19.94,19.94,0,0,1,1.25-4.71l-2.08-2.22-10.76-10c.55,6.95,2.43,18.16-2.85,22.16,0,0-6.45,3-9.27,3.81,1.82,1.37,19.22,20.26,29.61,19,9.45-1.16,5.39-19,3.76-21.65C268.3,172.37,265.37,171.65,262.8,171.18Z" transform="translate(-40.3 -62.17)"/><path class="cls-12" d="M261.39,167.61c-2.95-.68-7.21-2.63-7.94-6a13,13,0,0,1-.26-3.68l8.82,5.48C261.91,164.72,261.19,165.73,261.39,167.61Z" transform="translate(-40.3 -62.17)"/><path class="cls-21" d="M245.44,138.76c1.46,10.57,1.85,15.06,7.59,20.37,8.62,8,21.16,4.59,22.85-6,1.53-9.55-1.12-25.23-11.74-29.2C253.68,120,244,128.2,245.44,138.76Z" transform="translate(-40.3 -62.17)"/><path class="cls-4" d="M259,142.35c0,1,.6,1.84,1.3,1.88s1.24-.74,1.23-1.73-.6-1.84-1.3-1.88S259,141.36,259,142.35Z" transform="translate(-40.3 -62.17)"/><path class="cls-4" d="M257.32,138.65a.47.47,0,0,0,.37-.14,3.8,3.8,0,0,1,3.44-1.17.48.48,0,0,0,.59-.39.56.56,0,0,0-.42-.63,4.81,4.81,0,0,0-4.37,1.43.53.53,0,0,0,0,.74A.56.56,0,0,0,257.32,138.65Z" transform="translate(-40.3 -62.17)"/><path class="cls-4" d="M272.73,135.63a.51.51,0,0,0,.29-.25.53.53,0,0,0-.28-.68,5.48,5.48,0,0,0-4.85-.07.48.48,0,0,0-.16.69.57.57,0,0,0,.74.18,4.42,4.42,0,0,1,3.84.1A.56.56,0,0,0,272.73,135.63Z" transform="translate(-40.3 -62.17)"/><path class="cls-24" d="M266.93,140.68a35.8,35.8,0,0,0,3.83,6.29.82.82,0,0,1-.33,1.27,5.25,5.25,0,0,1-2.84.17Z" transform="translate(-40.3 -62.17)"/><path class="cls-4" d="M260,140.59l2.46-.49S260.72,141.87,260,140.59Z" transform="translate(-40.3 -62.17)"/><path class="cls-4" d="M270,141.66c0,1,.6,1.84,1.3,1.88s1.24-.73,1.22-1.73-.59-1.83-1.29-1.88S269.93,140.67,270,141.66Z" transform="translate(-40.3 -62.17)"/><path class="cls-4" d="M271,139.9l2.45-.48S271.68,141.19,271,139.9Z" transform="translate(-40.3 -62.17)"/><path class="cls-25" d="M265.87,153a5.31,5.31,0,0,1-4.87-2.59" transform="translate(-40.3 -62.17)"/><path class="cls-4" d="M241.87,122.92a13,13,0,0,1-2.89-5.15,10.47,10.47,0,0,0,6.87,3.06,5.91,5.91,0,0,1-.45-7.78,6.51,6.51,0,0,1,7.79-1.51c2.54,1.32,4.07,5,3.71,7.88s-1.39,7.38-7.54,7.53a12,12,0,0,1-12.72-6.68A12.26,12.26,0,0,0,241.87,122.92Z" transform="translate(-40.3 -62.17)"/><path class="cls-4" d="M248.84,155.92c-10.35-6.73-10-32.51,8.52-34S276,142.67,276,142.67c-3.2-20.62-21.39-13.25-21.39-13.25,3.56,8.22-3.66,13.6-3.66,13.6C248.33,148.64,248.84,155.92,248.84,155.92Z" transform="translate(-40.3 -62.17)"/><path class="cls-21" d="M242.63,147.56a8.51,8.51,0,0,0,5.34,3.77c2.84.58,4.08-4,3-6.77a5.64,5.64,0,0,0-6.52-3.37C241.77,141.86,241.08,145.14,242.63,147.56Z" transform="translate(-40.3 -62.17)"/><path class="cls-15" d="M246.49,143.81a1.72,1.72,0,0,0-2.12,1c-.34.9.17,3,2.93,3.61" transform="translate(-40.3 -62.17)"/><path class="cls-26" d="M243.27,153.87a3.56,3.56,0,1,0,3-4A3.56,3.56,0,0,0,243.27,153.87Z" transform="translate(-40.3 -62.17)"/><path class="cls-1" d="M222.66,271.58c1-28,14.77-37.23,14.77-37.23H280.2c1.6,6.29,3.8,17.32,5.82,24.48l19.83,86.9a31.23,31.23,0,0,1,1,6.23l4.07,87.62-28.63-.18c-1-2.51-6.65-56.49-9.58-81.09-3.91-13.42-7.16-25.36-9.49-35.95l.43,39.08,1.53,77.46-26.45-.32c-9.43-60.32-9.1-96.85-12.57-130.35C224.86,295.81,222.33,281.06,222.66,271.58Z" transform="translate(-40.3 -62.17)"/><path class="cls-27" d="M266.15,284.89a330.78,330.78,0,0,0-2.73,37.47c2.33,10.59,5.37,22.53,9.28,35.95C272.33,333.18,266.15,284.89,266.15,284.89Z" transform="translate(-40.3 -62.17)"/><path class="cls-13" d="M268.69,173.59s.4,7.52,2,8.83,2.2-1.58,2.2-1.58-.46,3.23.89,3.61c1.61.45,2.22-2.59,2.22-2.59s-.26,2.66,1,2.91,2.19-3.12,2.19-3.12.17,1.91,1.12,1.61,3.06-7.46,2.25-9.93-10.13-4.45-12.21-5c-2.41-.57-5.18,2.14-5.95,3.09l4.31,1.9Z" transform="translate(-40.3 -62.17)"/><path class="cls-12" d="M273.05,180.87v0l.53-5.67a.16.16,0,0,0-.15-.16.16.16,0,0,0-.17.12l-.52,5.68a.15.15,0,0,0,.14.15A.14.14,0,0,0,273.05,180.87Z" transform="translate(-40.3 -62.17)"/><path class="cls-12" d="M276.2,181.73h0l.93-5.41a.15.15,0,0,0-.3-.06l-.94,5.41a.15.15,0,0,0,.13.17A.16.16,0,0,0,276.2,181.73Z" transform="translate(-40.3 -62.17)"/><path class="cls-12" d="M279.35,181.5l.82-4a.16.16,0,0,0-.13-.17.14.14,0,0,0-.18.11l-.81,4a.14.14,0,0,0,.12.16A.14.14,0,0,0,279.35,181.5Z" transform="translate(-40.3 -62.17)"/><path class="cls-28" d="M304.56,260.7s3.2,1.8,3.93,4.66-.07,1.48.32,3.64.19,3.75-.87,2.51-2.32-2.25-3.17-1.34-3,10.8-4.37,11.94-1.5-.63-1.5-.63-.62,2.48-1.71,2.52c-.28,0-1-.42-.87-1.59.22-2.64,1-8.16,1-8.16,0,.32-1.46,7.07-1.81,8.05-.46,1.29-1.37,1.67-2.14,1.39-1.09-.4.38-8.82.18-9.22,0,0,.61,4.72-.8,5.24s-1.78-4.68-1-7.85c.57-2.5.76-4.72,1.73-7.15,1.18-3,2.69-4.77,5.83-5A11,11,0,0,1,304.56,260.7Z" transform="translate(-40.3 -62.17)"/><path class="cls-21" d="M303.75,271.36s-6.43.55-7.51,2,1.42,1.84,1.42,1.84-2.78-.3-3.07.86c-.35,1.4,2.28,1.84,2.28,1.84s-2.29-.16-2.47.9,2.73,1.79,2.73,1.79-1.63.2-1.34,1,6.47,2.42,8.56,1.66,3.93-8.77,3.91-10.6c0-.52-.17-1.41-2.25-2.64a1,1,0,0,0-1.29.27l-.78,1.1Z" transform="translate(-40.3 -62.17)"/><path class="cls-12" d="M297.64,275.29h0l4.88.3a.15.15,0,0,0,.13-.13c0-.07-.05-.14-.11-.14l-4.88-.29c-.06,0-.12.05-.13.12A.13.13,0,0,0,297.64,275.29Z" transform="translate(-40.3 -62.17)"/><path class="cls-12" d="M297,278h0l4.67.66a.12.12,0,0,0,.13-.12.12.12,0,0,0-.09-.15l-4.67-.65a.12.12,0,0,0-.13.11A.12.12,0,0,0,297,278Z" transform="translate(-40.3 -62.17)"/><path class="cls-12" d="M297.27,280.71l3.45.59a.13.13,0,0,0,.14-.11.13.13,0,0,0-.1-.16l-3.45-.58a.14.14,0,0,0-.14.11A.13.13,0,0,0,297.27,280.71Z" transform="translate(-40.3 -62.17)"/><path class="cls-21" d="M233.19,177c-.54.37-3.66,1-8.32,6.74-4.18,5.17-24.08,25.66-23.43,32.85.58,6.43,26.67,27.08,26.67,27.08l4.85-6-16.31-21,12.14-13.52Z" transform="translate(-40.3 -62.17)"/><path class="cls-21" d="M231.78,238.53s3.9-5.48,5.56-5.84,9.22.57,9.37,1.65a1.11,1.11,0,0,1-1,1.23l1.87,2.16s0,.65-.86.8c0,0-.07,1.58-.94,1.65a21.78,21.78,0,0,1-4.25-1.08l2.81,2s.43.72-1.73.5a4,4,0,0,1-2.92-1.29s-5,4.25-7.46,4.25a9.61,9.61,0,0,1-4.11-.87Z" transform="translate(-40.3 -62.17)"/><path class="cls-4" d="M237.29,176.4s-5.69-1.71-11.2,3.42c-5.19,4.83-14.21,15.59-14.21,15.59l13,14.71,12.26-8.72Z" transform="translate(-40.3 -62.17)"/><path class="cls-4" d="M156,234.35a8.73,8.73,0,0,0-4.6-1.72,182.1,182.1,0,0,0-37.17-2.18l-2.28.72c-1.52-1.23-3.85-.91-5.46.2a13.6,13.6,0,0,0-3.65,4.53c-8.61,14.53-16.94,29.28-23.62,44.79-1.55,3.59-3,7.63-1.7,11.31,1.54,4.29,6.26,6.44,10.58,7.91,14.12,4.78,28.91,7.2,43.64,9.47,3.58.55,7.42,1.06,10.68-.52,4.56-2.21,6.39-7.66,7.63-12.57a259.39,259.39,0,0,0,7.79-55C158,238.85,157.88,236,156,234.35Z" transform="translate(-40.3 -62.17)"/><polygon class="cls-11" points="97.62 387.23 107.93 388.24 115.55 362.13 99.87 360.43 97.62 387.23"/><path class="cls-4" d="M149.73,445.85h-3.68a2.61,2.61,0,0,0-2.1,1.09c-2.12,2.9-3.72,1.81-6-.92-1.47-.17-1.87,1.52-2,2l-2.75,10a1.57,1.57,0,0,0,1.08,1.94,1.19,1.19,0,0,0,.46.06h29.16c4.64,0,5.6-4.67,3.69-5.1-8.59-1.9-14.67-4.43-17.33-6.93C149.76,447.53,150.26,447.21,149.73,445.85Z" transform="translate(-40.3 -62.17)"/><path class="cls-1" d="M157.72,448.7a1.51,1.51,0,0,0,.62-1.2.67.67,0,0,0-.3-.65c-1.15-.82-5.76,1.33-6.27,1.58a.24.24,0,0,0-.13.13.21.21,0,0,0,.13.26,16.63,16.63,0,0,0,3.45.44A4.07,4.07,0,0,0,157.72,448.7Zm0-1.5a.24.24,0,0,1,.12.27,1.19,1.19,0,0,1-.45.88c-1,.78-3.57.44-4.93.19C154.4,447.7,157.12,446.75,157.75,447.2Z" transform="translate(-40.3 -62.17)"/><path class="cls-1" d="M151.92,448.87c1.39-.58,4.28-2.85,4.13-4.05,0-.26-.21-.56-.83-.64-2.53-.29-3.61,4.24-3.61,4.43a.22.22,0,0,0,.06.22h.15Zm3.21-4.32c.47.05.47.22.47.28.13.73-2,2.62-3.47,3.41.31-1.06,1.24-3.7,2.83-3.7Z" transform="translate(-40.3 -62.17)"/><path class="cls-23" d="M152.28,448.69a4.47,4.47,0,0,0-3.12,2" transform="translate(-40.3 -62.17)"/><path class="cls-23" d="M154.57,450.41a4.45,4.45,0,0,0-3.12,2" transform="translate(-40.3 -62.17)"/><path class="cls-23" d="M157.42,451.86a4.44,4.44,0,0,0-3.13,2" transform="translate(-40.3 -62.17)"/><polygon class="cls-22" points="111.52 375.93 110.59 379.13 98.46 377.26 98.67 374.64 111.52 375.93"/><polygon class="cls-11" points="37.61 388.05 47.92 389.06 55.54 362.96 39.85 361.25 37.61 388.05"/><path class="cls-4" d="M89.71,446.68H86a2.61,2.61,0,0,0-2.09,1.09c-2.12,2.9-3.72,1.81-6-.92-1.47-.17-1.86,1.51-2,2l-2.75,10a1.57,1.57,0,0,0,1.08,1.94,1.19,1.19,0,0,0,.46.06h29.16c4.64,0,5.6-4.67,3.69-5.1-8.59-1.9-14.68-4.43-17.33-6.93C89.74,448.36,90.25,448,89.71,446.68Z" transform="translate(-40.3 -62.17)"/><path class="cls-1" d="M97.7,449.53a1.53,1.53,0,0,0,.63-1.21.68.68,0,0,0-.3-.64c-1.16-.82-5.76,1.33-6.28,1.58a.22.22,0,0,0-.12.13.21.21,0,0,0,.12.26,17.52,17.52,0,0,0,3.45.44A4.13,4.13,0,0,0,97.7,449.53Zm0-1.51a.28.28,0,0,1,.12.28,1.22,1.22,0,0,1-.46.88c-1,.78-3.57.44-4.92.19C94.39,448.53,97.1,447.58,97.74,448Z" transform="translate(-40.3 -62.17)"/><path class="cls-1" d="M91.91,449.69c1.38-.57,4.28-2.84,4.12-4,0-.26-.2-.56-.83-.64-2.52-.29-3.6,4.24-3.6,4.43a.2.2,0,0,0,.06.22h.14Zm3.21-4.31c.47.05.47.22.47.28.13.73-2,2.62-3.48,3.41.32-1.06,1.24-3.7,2.84-3.7Z" transform="translate(-40.3 -62.17)"/><path class="cls-23" d="M92.27,449.52a4.48,4.48,0,0,0-3.13,2" transform="translate(-40.3 -62.17)"/><path class="cls-23" d="M94.56,451.24a4.47,4.47,0,0,0-3.13,2" transform="translate(-40.3 -62.17)"/><path class="cls-23" d="M97.4,452.69a4.46,4.46,0,0,0-3.12,2" transform="translate(-40.3 -62.17)"/><polygon class="cls-22" points="51.51 376.76 50.58 379.96 38.44 378.09 38.66 375.47 51.51 376.76"/><path class="cls-8" d="M157.56,251.26s-7.57,8-22.41,8.13-31.48-8.5-31.48-8.5l1.86-3.2,42.73,4.66,8.18-4.66Z" transform="translate(-40.3 -62.17)"/><path class="cls-1" d="M158.86,255.85s9,36.94,13.09,69.8c1.24,10,1.48,23.42-.71,33.28l-16.47,81.88L134,438.73c3.26-35.31,7.8-78.86,9.1-97.39l-23.83-74.15Z" transform="translate(-40.3 -62.17)"/><path class="cls-1" d="M91.23,347.93c.47-2,1.22-6.19,2.14-11.66l-.09,0c.68-7.24,1.92-40.8,4.21-62.2,1.76-13.64,5.25-22.86,8.75-27.38l.5-.63c.58-.73.94-1.13.94-1.13.67.17,1.33.32,2,.47l.73.16a86.9,86.9,0,0,0,44.44-2.25,148.2,148.2,0,0,1,7.79,31c-2.6,2.84-14,6.53-27,9L131.9,300.1c-2,10.43-4.48,20.67-6.61,29.88l-2.23,10.09c-.14.66-.27,1.32-.4,2-1.13,5.8-28.06,99.27-28.06,99.27l-17.55-1S84.89,375.58,91.23,347.93Z" transform="translate(-40.3 -62.17)"/><path class="cls-8" d="M131,304c-.07.34,8.68-31.46,8.68-31.46s4.36,24-6,40.49Z" transform="translate(-40.3 -62.17)"/><polygon class="cls-8" points="115.53 373.31 114.46 378.64 93.74 376.56 94.28 370.78 115.53 373.31"/><polygon class="cls-8" points="54.29 379.13 55.77 373.99 37.4 372.78 36.74 378.1 54.29 379.13"/><path class="cls-4" d="M99.52,200.63l-6.44-22c4.07-6.09,24.25-10.76,24.25-10.76l13.29.72s5.11,1.14,9.48,2.57c5.84,1.9,9,3.44,10.39,6.68,0,0,2.43,7.17,1,22-.4,4.06-1.32,25.53-.19,32.51l8.26,16.16c-24.29,18.91-55.38,0-55.38,0,1.1-3.34,3.49-10.74,4-14-.36-4.17-1.53-6.9-3.29-14.19C104.51,218.91,100.11,202,99.52,200.63Z" transform="translate(-40.3 -62.17)"/><path class="cls-16" d="M99.52,200.63l-6.44-22c4.07-6.09,24.25-10.76,24.25-10.76l13.29.72s5.11,1.14,9.48,2.57c5.84,1.9,9,3.44,10.39,6.68,0,0,2.43,7.17,1,22-.4,4.06-1.32,25.53-.19,32.51l8.26,16.16c-24.29,18.91-55.38,0-55.38,0,1.1-3.34,3.49-10.74,4-14-.36-4.17-1.53-6.9-3.29-14.19C104.51,218.91,100.11,202,99.52,200.63Z" transform="translate(-40.3 -62.17)"/><polygon class="cls-11" points="47.78 134.05 43.36 176.63 46.1 213.49 54.27 214 57.81 175.69 62.38 141.54 47.78 134.05"/><path class="cls-4" d="M94.91,176.58c-5,2.12-11.25,26.87-11.25,26.87l19.57,5.05s6.4-18.36,4.28-24.94C105.7,178,101.19,173.88,94.91,176.58Z" transform="translate(-40.3 -62.17)"/><path class="cls-16" d="M94.91,176.58c-5,2.12-11.25,26.87-11.25,26.87l19.57,5.05s6.4-18.36,4.28-24.94C105.7,178,101.19,173.88,94.91,176.58Z" transform="translate(-40.3 -62.17)"/><path class="cls-11" d="M94.57,276.17a40.86,40.86,0,0,1,2.26,5.1c.45,1.36.15,12-1.13,11.32s-1.51-1.12-1.73-3.43-.23-4.46-.83-3.9S91.4,292.59,92,294.5s1.81,5.34.61,6.22-2-.56-2-.56-.15,1.91-1.21,1.19-5.13-5.73-5.58-8,1.78-12.09,2-14.52c.07-.73,1.06-5.4,1.06-5.4L95,271.66Z" transform="translate(-40.3 -62.17)"/><path class="cls-13" d="M100.75,176.19s1.28,6.85.12,8.38-2.32-.94-2.32-.94,1.12,2.81,0,3.44c-1.36.76-2.57-1.84-2.57-1.84s.82,2.33-.22,2.83-2.66-2.33-2.66-2.33.26,1.75-.66,1.69-4.38-6-4.19-8.44,8.14-6.23,9.9-7.12a5.41,5.41,0,0,1,5.23.06L100.71,176Z" transform="translate(-40.3 -62.17)"/><path class="cls-12" d="M98.42,183.69h0l-1.71-5a.15.15,0,0,1,.1-.17.13.13,0,0,1,.17.07l1.72,5a.15.15,0,0,1-.1.18A.13.13,0,0,1,98.42,183.69Z" transform="translate(-40.3 -62.17)"/><path class="cls-12" d="M95.77,185.15h0l-2-4.66a.14.14,0,0,1,.08-.18.13.13,0,0,1,.18.06L96,185a.14.14,0,0,1-.08.18A.14.14,0,0,1,95.77,185.15Z" transform="translate(-40.3 -62.17)"/><path class="cls-12" d="M92.88,185.63l-1.6-3.42a.14.14,0,0,1,.08-.18.13.13,0,0,1,.18.06l1.61,3.42a.15.15,0,0,1-.08.18A.14.14,0,0,1,92.88,185.63Z" transform="translate(-40.3 -62.17)"/><polygon class="cls-8" points="61.74 146.33 62.92 146.33 66.49 135.79 64.92 159.66 61.63 147.17 61.74 146.33"/><path class="cls-4" d="M127.54,238.53a31.77,31.77,0,0,0-20.76-5.39l-3.55,9.34c9.94,9,22.1,10.17,35.49,9.75C140.6,245.31,133.56,242.66,127.54,238.53Z" transform="translate(-40.3 -62.17)"/><path class="cls-4" d="M155.53,232.52c-1-1.84-3-3.3-5.05-3a7.09,7.09,0,0,0-3.81,2.5,44,44,0,0,0-9.43,15.73l.78,4.46,4.15-1.7c3.93-1.61,8-3.3,10.9-6.37S157.52,236.26,155.53,232.52Z" transform="translate(-40.3 -62.17)"/><circle class="cls-4" cx="98.72" cy="186.35" r="5.62"/><path class="cls-4" d="M141.47,270.6q-.71-10-1.4-20l-2.61,1.7a60,60,0,0,0-9.87,41.33,49.34,49.34,0,0,0,10.58.69l-3-6.32c3.08-1.21,5.12-4.29,5.93-7.5S141.7,273.9,141.47,270.6Z" transform="translate(-40.3 -62.17)"/><path class="cls-4" d="M152.82,277.64c1.49-2,1.77-4.72,1.61-7.24a25.38,25.38,0,0,0-12-19.79l-1.11-.88c4,12,3.21,25.07,2.39,37.72l8.05-1.63c-.83-1.66-1.68-3.56-1-5.3A13.47,13.47,0,0,1,152.82,277.64Z" transform="translate(-40.3 -62.17)"/><path class="cls-4" d="M144.33,123.28a2.55,2.55,0,0,0,1.45-2.76,3.82,3.82,0,0,0-1.94-2.61,7.86,7.86,0,0,0-3.23-.88,5.78,5.78,0,0,0-3.19.42l4.74,13.72a7.89,7.89,0,0,0,2.85-2,4.48,4.48,0,0,0,1.18-3.19A3.15,3.15,0,0,0,144.33,123.28Z" transform="translate(-40.3 -62.17)"/><path class="cls-4" d="M143.22,112a10.41,10.41,0,0,0-5.18-1.41,5.92,5.92,0,0,0,.72-6.65c-1.77-3-5.56-2.78-8.54-1.78-2.6.87-5.27,2.18-6.88,4.78a4.71,4.71,0,0,0-2.46-3.46,6.7,6.7,0,0,0-3.89-.57,10.13,10.13,0,0,0-6.15,2.81,9.45,9.45,0,0,0-2.75,7c-2.92-1.31-6.54.15-8.19,3.32a9.68,9.68,0,0,0,1.1,10.26c-1.18,1.29-1.11,3.22-.43,4.94s4.47,1.1,6.05.81l25.49-9.24c3,1.85,6.68.05,9.75-1.74,1.44-.83,3-1.86,3.5-3.68A5.26,5.26,0,0,0,143.22,112Z" transform="translate(-40.3 -62.17)"/><path class="cls-4" d="M130.82,126.8s8.3,15,8.69,19.61c3.18,2.71,5.44-2.78,5.32-10.13-.1-6-3.24-12.51-8.44-14.84C129.09,118.15,130.82,126.8,130.82,126.8Z" transform="translate(-40.3 -62.17)"/><path class="cls-11" d="M129.69,169.82a5.37,5.37,0,0,1-1.75-4.86,20.27,20.27,0,0,1,1.28-4.74L127.15,158l-10.79-10.13c.51,7,1.76,18.24-3.58,22.25l16.91,13.67Z" transform="translate(-40.3 -62.17)"/><path class="cls-12" d="M128.4,165.56c-2.92-1.59-6.17-4.42-5.92-7.81a15.92,15.92,0,0,1,.69-3.65l6.09,7.49A19.47,19.47,0,0,0,128.4,165.56Z" transform="translate(-40.3 -62.17)"/><path class="cls-11" d="M113.53,136.68c1.37,10.66,1.72,15.19,7.44,20.59,8.61,8.14,21.27,4.84,23.09-5.84,1.63-9.62-.88-25.43-11.54-29.54C122,117.83,112.16,126,113.53,136.68Z" transform="translate(-40.3 -62.17)"/><path class="cls-4" d="M128,140.44c0,1,.59,1.85,1.29,1.9s1.26-.73,1.25-1.73-.58-1.85-1.28-1.9S128,139.43,128,140.44Z" transform="translate(-40.3 -62.17)"/><path class="cls-4" d="M138.91,139.5a1.73,1.73,0,0,0,1.17,1.92c.7.09,1.3-.62,1.35-1.59s-.48-1.84-1.17-1.92S139,138.53,138.91,139.5Z" transform="translate(-40.3 -62.17)"/><path class="cls-4" d="M125.18,137a.46.46,0,0,0,.38-.14,3.84,3.84,0,0,1,3.48-1.14.48.48,0,0,0,.6-.39.58.58,0,0,0-.43-.64,4.83,4.83,0,0,0-4.41,1.4.55.55,0,0,0,0,.75A.56.56,0,0,0,125.18,137Z" transform="translate(-40.3 -62.17)"/><path class="cls-4" d="M141.76,134.8a.49.49,0,0,0,.29-.24.53.53,0,0,0-.27-.69,5.52,5.52,0,0,0-4.89-.12.48.48,0,0,0-.17.69.57.57,0,0,0,.74.2,4.41,4.41,0,0,1,3.88.13A.52.52,0,0,0,141.76,134.8Z" transform="translate(-40.3 -62.17)"/><path class="cls-11" d="M110.61,145.51a8.62,8.62,0,0,0,5.34,3.86c2.86.6,4.16-4,3.09-6.8a5.7,5.7,0,0,0-6.54-3.45C109.8,139.76,109.07,143.06,110.61,145.51Z" transform="translate(-40.3 -62.17)"/><path class="cls-29" d="M135.16,138.83a36.41,36.41,0,0,0,3.8,6.37.83.83,0,0,1-.34,1.27,5.25,5.25,0,0,1-2.87.15Z" transform="translate(-40.3 -62.17)"/><path class="cls-4" d="M129.07,138.67l2.48-.46S130.13,140,129.07,138.67Z" transform="translate(-40.3 -62.17)"/><path class="cls-4" d="M140,137.9l2.51-.31S141,139.27,140,137.9Z" transform="translate(-40.3 -62.17)"/><path class="cls-4" d="M110.64,130.84c-1.45,2.1,1.44,8.18,1.44,8.18s5.13-1.52,5.41,6.21c1.89.31,4-6.91,3.7-14.16C120.81,127,113.2,127.14,110.64,130.84Z" transform="translate(-40.3 -62.17)"/><path class="cls-15" d="M114.54,141.78a1.71,1.71,0,0,0-2.14,1c-.36.9.13,3,2.91,3.67" transform="translate(-40.3 -62.17)"/><path class="cls-4" d="M136.73,150.11a27,27,0,0,0-1.78,3.48l-.67-.16c-3-.78-4.17-2.14-4.52-3.41a4.29,4.29,0,0,1,.33-2.94c1.36,1.37,4.12,2.31,5.62,2.75A10.22,10.22,0,0,0,136.73,150.11Z" transform="translate(-40.3 -62.17)"/><path class="cls-10" d="M135.71,149.83l-.55,1c-2.85-.74-4.76-1.64-5.43-2.74a4.16,4.16,0,0,1,.36-1C131.45,148.45,134.21,149.39,135.71,149.83Z" transform="translate(-40.3 -62.17)"/><path class="cls-18" d="M134.28,153.43c-3-.78-4.17-2.14-4.52-3.41a9.79,9.79,0,0,1,3.18,1.53A3.72,3.72,0,0,1,134.28,153.43Z" transform="translate(-40.3 -62.17)"/><path class="cls-4" d="M140.88,124.89c-2.27-4.7-11.48-9.07-22.08-4.53-9.57,4.09-14.07,15.75-7.15,16.27s18.49-5.46,18.49-5.46Z" transform="translate(-40.3 -62.17)"/><path class="cls-1" d="M116.75,153.43S106.18,145.24,105,133.9c0,0,4.51-14.39,24.07-15.45l4.45.88S113.65,130.37,116.75,153.43Z" transform="translate(-40.3 -62.17)"/><path class="cls-1" d="M129.64,118.54a8.09,8.09,0,0,1,9.73,3.08,33.19,33.19,0,0,1,5.14,12.28s-1.49-7.51-5.6-9.82a58.9,58.9,0,0,0-7.65-3.61Z" transform="translate(-40.3 -62.17)"/><polygon class="cls-22" points="87.7 61.45 88.33 56.32 86.85 56.43 85.96 62.99 87.7 61.45"/><path class="cls-22" d="M106.27,131.17a40.66,40.66,0,0,0,10.32,19.68l-.11-4.09s-5.92-9.24-8.57-18.07A14.21,14.21,0,0,0,106.27,131.17Z" transform="translate(-40.3 -62.17)"/><path class="cls-22" d="M111,125.35a41.91,41.91,0,0,0,6.81,14A30.42,30.42,0,0,1,119,136a84.74,84.74,0,0,1-5.88-12.35A22.4,22.4,0,0,0,111,125.35Z" transform="translate(-40.3 -62.17)"/><path class="cls-22" d="M120.15,120.08c-.91.31-1.77.64-2.57,1a41.75,41.75,0,0,0,4.36,9.43c.62-.94,1.27-1.83,1.93-2.65A85.69,85.69,0,0,1,120.15,120.08Z" transform="translate(-40.3 -62.17)"/><path class="cls-22" d="M138.65,123.93l-1.76-4.81s1.24,1,1.61,1.43a30,30,0,0,1,1.5,4.31Z" transform="translate(-40.3 -62.17)"/><path class="cls-1" d="M128.6,118.81s2.48-5.48,5.2-3.79,6.75,9.83,3.94,9.51-9,.61-9.73-.91S128.6,118.81,128.6,118.81Z" transform="translate(-40.3 -62.17)"/><path class="cls-22" d="M128.53,124.08l6.33-8.16s1.48,1.89,1.58,2.06-4.6,6.56-4.6,6.56S129.05,124.54,128.53,124.08Z" transform="translate(-40.3 -62.17)"/><path class="cls-28" d="M320.27,450.33c-1.43-1.64-6.24-75.14-5.55-81.66s-.07-26.37-.07-26.37h23.08s-1,23.27,0,32.2-8.86,76.92-8.86,76.92Z" transform="translate(-40.3 -62.17)"/><polygon class="cls-1" points="279.31 388.08 276.69 353.5 293.46 353.5 289.04 388.33 279.31 388.08"/><polygon class="cls-16" points="279.31 388.08 276.69 353.5 293.46 353.5 289.04 388.33 279.31 388.08"/><path class="cls-4" d="M312.06,458.59h19.68s.43-.82-.06-3a10.68,10.68,0,0,0-.3-1.13.19.19,0,0,0,0-.07c-.18-.6-.39-1.35-.61-2.16-.91-3.3-2-7.6-2-7.6s-3.27-7-7.1-5.26c-3.36,1.53-2.57,5.93-2.57,5.93a8.62,8.62,0,0,1-2.88,4.85c-1.57,1.41-3.14,2.5-3.89,4.24a5.71,5.71,0,0,0-.33,1.06l0,.14A8,8,0,0,0,312.06,458.59Z" transform="translate(-40.3 -62.17)"/><path class="cls-30" d="M331.68,455.57c.49,2.2.06,3,.06,3H312.06a8,8,0,0,1-.08-3Z" transform="translate(-40.3 -62.17)"/><path class="cls-10" d="M319.9,446.38a2.66,2.66,0,0,1,3.56.22c.27.26.68-.15.41-.41a3.25,3.25,0,0,0-4.38-.22c-.29.23.12.64.41.41Z" transform="translate(-40.3 -62.17)"/><path class="cls-10" d="M319.35,448.22a2.64,2.64,0,0,1,3.55.22c.27.26.68-.15.42-.41a3.25,3.25,0,0,0-4.38-.22c-.3.23.12.63.41.41Z" transform="translate(-40.3 -62.17)"/><path class="cls-10" d="M318.79,449.91a2.66,2.66,0,0,1,3.56.22c.26.26.68-.15.41-.41a3.25,3.25,0,0,0-4.38-.22c-.29.23.12.64.41.41Z" transform="translate(-40.3 -62.17)"/><polygon class="cls-1" points="276.92 359.19 292.73 359.28 292.27 362.91 277.35 362.62 276.92 359.19"/><polygon class="cls-1" points="277.51 365.76 277.51 364.28 292.05 364.62 291.88 366 277.51 365.76"/><path class="cls-28" d="M368.54,328.35c0,1.16,12.28,31.85,12.28,31.85s.76,26.12,2.68,36.66c1,5.63,5.37,19.54,9.1,31.29,3.25,10.22,6,18.82,6,18.82l13-2.27s-7-59.55-7-71.07-10.68-36.25-10.68-36.25Z" transform="translate(-40.3 -62.17)"/><polygon class="cls-1" points="357.3 381.72 347.89 352.11 367.37 347.67 371.29 383.85 357.3 381.72"/><polygon class="cls-16" points="357.3 381.72 347.89 352.11 367.37 347.67 371.29 383.85 357.3 381.72"/><path class="cls-4" d="M399,459.21l8.05-.06a6.39,6.39,0,0,1,2.57-.72c1,.1,4.28.67,4.28.67l21.37-.15a17.48,17.48,0,0,0-.64-2.25,10.14,10.14,0,0,0-1-2.06,6.11,6.11,0,0,0-5.12-2.83c-3-.16-12.46-6-12.46-6s-3.42-1.1-3.64-4.51c-.08-1.28-2.1-2.83-3.06-2.95-2-.25-3,.91-3.3,2.75l-.32,2.13-4.51-.62s-4.61-2.14-4.37,0c.13,1.21.95,6.56,1.47,10.8.12,1,.23,1.93.33,2.75h0C398.84,458,399,459.21,399,459.21Z" transform="translate(-40.3 -62.17)"/><path class="cls-30" d="M435.27,459l-21.37.15s-3.32-.57-4.28-.67a6.39,6.39,0,0,0-2.57.72l-8.05.06s-.16-1.25-.38-3.08l36,.57A17.48,17.48,0,0,1,435.27,459Z" transform="translate(-40.3 -62.17)"/><path class="cls-10" d="M420.73,448a.3.3,0,0,0-.37,0,3.49,3.49,0,0,0-1.27,1.39c-.15.31.33.6.49.29a3.08,3.08,0,0,1,1.11-1.23.26.26,0,0,0,0-.42Z" transform="translate(-40.3 -62.17)"/><path class="cls-10" d="M419,447a.31.31,0,0,0-.37,0,3.46,3.46,0,0,0-1.26,1.39c-.16.31.32.6.48.29a3.15,3.15,0,0,1,1.11-1.23.26.26,0,0,0,0-.42Z" transform="translate(-40.3 -62.17)"/><path class="cls-10" d="M417.26,446.18a.32.32,0,0,0-.37,0,3.6,3.6,0,0,0-1.26,1.39c-.16.31.32.61.48.29a3.05,3.05,0,0,1,1.11-1.22.27.27,0,0,0,0-.43Z" transform="translate(-40.3 -62.17)"/><polygon class="cls-1" points="349.44 357.32 367.89 352.59 368.31 356.36 350.76 361.13 349.44 357.32"/><polygon class="cls-1" points="351.06 362.41 368.44 357.58 368.59 358.94 351.6 364.08 351.06 362.41"/><path class="cls-4" d="M401.09,342.93c-1.54-14.75-19.71-93.05-19.71-93.05l-25.86.78-40.91,1.67s-5.72,33.1-4.32,55.38l.75,57.92,30.91,2,.91-18.56c1.44-12.47,4.73-45.79,5.75-56.25.43-2.31.85-4.64,1.26-7,4.05,11.33,19.94,55.91,21.38,62.87,1.65,8,4.13,17.6,4.13,17.6l29.16-4.22S402.63,357.67,401.09,342.93Z" transform="translate(-40.3 -62.17)"/><g class="cls-7"><path d="M370.78,261.59a25,25,0,0,0,16.75,16.55.35.35,0,0,1-.18.67,25.73,25.73,0,0,1-17.24-17c-.13-.43.54-.61.67-.18Z" transform="translate(-40.3 -62.17)"/><path d="M349.19,261.59q.71,10.37,1.39,20.74c0,.45.72.45.7,0-.25-3.54-.48-7.1-.72-10.66,1.71,1.32,3.7-.27,4.26-2a17.31,17.31,0,0,0-.14-9.09.35.35,0,0,0-.67.18,19.68,19.68,0,0,1,.57,6.12,8.45,8.45,0,0,1-.66,3.21c-.55,1.07-1.93,2-3,1a.35.35,0,0,0-.37-.06c-.21-3.13-.43-6.27-.64-9.4C349.86,261.14,349.17,261.14,349.19,261.59Z" transform="translate(-40.3 -62.17)"/><path d="M328.87,262.76a17.46,17.46,0,0,1-16.08,17.56c-.43,0-.43-.65,0-.68a16.77,16.77,0,0,0,15.4-16.88c0-.43.67-.43.68,0Z" transform="translate(-40.3 -62.17)"/></g><path class="cls-28" d="M412.15,164.15c-.17.4-17.95,23.72-17.95,23.72L379.77,166.6s-12.51,14-12,14.12,18.89,31.56,29.62,24.81,21.34-37.29,21.34-37.29Z" transform="translate(-40.3 -62.17)"/><path class="cls-28" d="M412.18,166.82s-2.72-2.42-2.79-5.36-.95-5.27-.85-7.46,2,.14,2.77,1.57,1.63,3.05,2.66,2.33,5.53-10.3,7.08-11.14,1.33.93,1.33.93,1.15-2.3,2.23-2.11c.28,0,.85.6.49,1.72-.8,2.54-2.76,7.78-2.76,7.78.1-.31,3-6.61,3.57-7.49.74-1.17,1.71-1.35,2.4-.92,1,.61-2.35,8.54-2.24,9,0,0,1.75-4.63,3.25-4.85s.56,2.75-.79,5.22c-1.24,2.26-3,7-4.53,9.19-1.84,2.69-3.7,4.1-6.81,3.65A11,11,0,0,1,412.18,166.82Z" transform="translate(-40.3 -62.17)"/><path class="cls-31" d="M422.16,148q-1.31,2.81-2.36,5.7" transform="translate(-40.3 -62.17)"/><path class="cls-31" d="M425.45,157.45a14.56,14.56,0,0,0-7.53-3" transform="translate(-40.3 -62.17)"/><path class="cls-31" d="M414.65,159.05a4.73,4.73,0,0,1,2,2.51,4.55,4.55,0,0,1-.13,3.17" transform="translate(-40.3 -62.17)"/><path class="cls-8" d="M394.2,187.87s-2,3.74-1.44,7.07a7.11,7.11,0,0,1-1.1-4.26A10.21,10.21,0,0,1,393,186Z" transform="translate(-40.3 -62.17)"/><path class="cls-28" d="M306.64,164.15s-9.64,38.58-10.5,47.45-1.06,51.23-1.06,51.23l11.41,1L311,218.11l11.51-51.65Z" transform="translate(-40.3 -62.17)"/><path class="cls-1" d="M362.2,150.31c-6.66,4.66-7.5,17.75,13.11,45.9l16.35-16.55c-4.24-7.16-7.92-10.67-14.21-19.19C367.52,147.27,362.2,150.31,362.2,150.31Z" transform="translate(-40.3 -62.17)"/><path class="cls-16" d="M362.08,150.33c-6.6,4.74-7.27,17.84,13.7,45.73l16.14-16.76c-4.33-7.1-8.06-10.56-14.46-19C367.36,147.23,362.08,150.33,362.08,150.33Z" transform="translate(-40.3 -62.17)"/><path class="cls-1" d="M362.36,149.81c-5.3-.31-26.48-2.35-48.1,1.81l1.26,79.3s-.56,10.5-2,21c22.61,8.36,55.23,7.67,69.64-.92-.43.94-10.32-68.9-16.37-100.42C366.73,150.12,362.89,149.84,362.36,149.81Z" transform="translate(-40.3 -62.17)"/><path class="cls-1" d="M314.76,151.52a14.65,14.65,0,0,0-11.06,11.81c-1.89,9.4-7.18,30.3-7.18,30.3l21.31,2.64,4.29-24.45Z" transform="translate(-40.3 -62.17)"/><path class="cls-16" d="M314.76,151.52a14.65,14.65,0,0,0-11.06,11.81c-1.89,9.4-7.18,30.3-7.18,30.3l21.31,2.64,4.29-24.45C322.88,162.24,320.93,155,314.76,151.52Z" transform="translate(-40.3 -62.17)"/><polygon class="cls-8" points="332.76 130.92 329.37 105.72 337.07 131.95 335 134.04 332.76 130.92"/><polygon class="cls-8" points="275.37 133.83 277.52 134.1 281.81 113.95 279.83 136.56 275.49 137.47 275.37 133.83"/><rect class="cls-16" x="352.94" y="169.2" width="4.99" height="3.36" rx="1.32" transform="translate(-64.31 1.22) rotate(-9.86)"/><path class="cls-4" d="M360.13,106.77l1.13.66a3,3,0,0,1,1.38,5.7c-.18.09-.38.19-.44.38s.22.56.46.77a3.06,3.06,0,0,1,0,4.23,5.28,5.28,0,0,1-4.34,1.4C357.88,115.49,360.51,111.2,360.13,106.77Z" transform="translate(-40.3 -62.17)"/><path class="cls-4" d="M326.4,119.24a4.31,4.31,0,0,1-4-2.51,2.38,2.38,0,0,1-.23-1.36c.21-1.25,1.64-1.82,2.85-2.16a3.75,3.75,0,0,1-2.53-3.06,3.71,3.71,0,0,1,.08-1.9,3.8,3.8,0,0,1,2.25-2.17,11.27,11.27,0,0,1,3.16-.61l6.18,19.6a10.84,10.84,0,0,1-4.2.26,5.15,5.15,0,0,1-3.53-2.13A3.46,3.46,0,0,1,326.4,119.24Z" transform="translate(-40.3 -62.17)"/><path class="cls-28" d="M329.86,150.68c5.7-4.87,5.43-19,4.41-26.3l16.25,14.08a20,20,0,0,0-1,2.56,9.76,9.76,0,0,0-.41,4.88c.3,1.34,1.8,5.1,1.8,5.1s.81,4.2-10.24,4C335.81,155.43,329.86,150.68,329.86,150.68Z" transform="translate(-40.3 -62.17)"/><path class="cls-8" d="M337.18,131.84c-1,8.56,7.6,12.71,11.94,14.07a9.6,9.6,0,0,1,.4-4.87Z" transform="translate(-40.3 -62.17)"/><path class="cls-28" d="M331.48,118c2,10.12,2.93,15.86,8.93,20.36,9,6.78,21.1.6,22.24-9.93,1-9.48-2.42-24.43-13.24-27.07C338.75,98.74,329.47,107.87,331.48,118Z" transform="translate(-40.3 -62.17)"/><path class="cls-4" d="M328.51,105.89c.69-5.8,15.18-7.72,19.61-5.37.66.35-7.36,5.64-6.87,5.39l-3.86,1.88c-.64-.06-1.77.81-2.15,2.77,0,0,2.55,15.57-1.41,20.68-3.89-1.26-4.93-7.43-6.58-11C324.79,115,321.65,107.21,328.51,105.89Z" transform="translate(-40.3 -62.17)"/><path class="cls-28" d="M328.47,127a9.79,9.79,0,0,0,5.69,5c3.33,1.11,4-2.36,3.33-5.54-.66-2.86-2-6.27-5.44-6A4.44,4.44,0,0,0,328.47,127Z" transform="translate(-40.3 -62.17)"/><path class="cls-4" d="M345.6,118.49c.14,1,.82,1.81,1.52,1.71s1.16-1,1-2.06-.82-1.81-1.52-1.71S345.46,117.45,345.6,118.49Z" transform="translate(-40.3 -62.17)"/><path class="cls-4" d="M356.16,117.88c.14,1.05.82,1.82,1.52,1.72s1.16-1,1-2.07-.82-1.81-1.52-1.71S356,116.84,356.16,117.88Z" transform="translate(-40.3 -62.17)"/><path class="cls-32" d="M354,117.71s4.09,4.75,5.46,6.72c-1.32,1.5-4,1.23-4,1.23Z" transform="translate(-40.3 -62.17)"/><path class="cls-4" d="M343.61,114.42a.56.56,0,0,0,.5-.14,4.14,4.14,0,0,1,3.45-1.24.52.52,0,0,0,.6-.39.49.49,0,0,0-.4-.58,5.2,5.2,0,0,0-4.37,1.53.47.47,0,0,0,0,.69A.5.5,0,0,0,343.61,114.42Z" transform="translate(-40.3 -62.17)"/><path class="cls-15" d="M330.49,123.89a2,2,0,0,1,1.93-.92,3.33,3.33,0,0,1,2,1,5.07,5.07,0,0,1,1.3,2.31" transform="translate(-40.3 -62.17)"/><path class="cls-4" d="M361.51,112.85a.59.59,0,0,0,.24-.17.49.49,0,0,0-.1-.7,5.13,5.13,0,0,0-4.52-.83.49.49,0,0,0-.3.63.5.5,0,0,0,.64.3,3.94,3.94,0,0,1,3.57.7A.53.53,0,0,0,361.51,112.85Z" transform="translate(-40.3 -62.17)"/><path class="cls-4" d="M325.11,101.26c.54-2.45,3.63-3.33,6.08-3.11-.45-2.88,3.23-5,5.67-5.17s3.58.68,3.58.68c-.19.06.6-1.52,1.13-2.17A7.91,7.91,0,0,1,349.86,89a8.2,8.2,0,0,1,5.53,6.83,4.25,4.25,0,0,1,5.9-.53,4.51,4.51,0,0,1,.43,6,3.55,3.55,0,1,1,0,7.1c.13,2.15.21,4.84.34,7l-3.84-7.53c-1.57-.35-1.93-1-2.42-2.57-.88,2.15-2.65,2.18-4.91,2.34a6.3,6.3,0,0,1-5.75-3,6.75,6.75,0,0,1-5.32,4.29,4.81,4.81,0,0,1-5.14-4,5.26,5.26,0,0,1-6.32,2.44A5.5,5.5,0,0,1,325.11,101.26Z" transform="translate(-40.3 -62.17)"/><path class="cls-4" d="M355.05,129.12a29.16,29.16,0,0,0-2.36,3.55c-.23-.09-.47-.17-.7-.27-3.18-1.21-4.26-2.82-4.48-4.24a4.54,4.54,0,0,1,.21-2.07,4.24,4.24,0,0,1,.52-1.07c1.3,1.65,4.17,3,5.74,3.67C354.67,128.94,355.05,129.12,355.05,129.12Z" transform="translate(-40.3 -62.17)"/><path class="cls-10" d="M354,128.67l-.73,1c-3-1.14-4.93-2.34-5.53-3.62a4.21,4.21,0,0,1,.51-1.07C349.59,126.67,352.45,128,354,128.67Z" transform="translate(-40.3 -62.17)"/><path class="cls-18" d="M352,132.38c-3.18-1.21-4.26-2.82-4.48-4.24a10.73,10.73,0,0,1,3.26,2A4.13,4.13,0,0,1,352,132.38Z" transform="translate(-40.3 -62.17)"/></g></svg>