<?xml version="1.0" encoding="utf-8"?>
<!-- Generator: Adobe Illustrator 24.2.3, SVG Export Plug-In . SVG Version: 6.00 Build 0)  -->
<svg version="1.1" id="Capa_1" xmlns="http://www.w3.org/2000/svg" xmlns:xlink="http://www.w3.org/1999/xlink" x="0px" y="0px"
	 viewBox="0 0 384 384" style="enable-background:new 0 0 384 384;" xml:space="preserve">
<style type="text/css">
	.st0{fill:#FF0000;}
</style>
<path class="st0" d="M380.2,105.5c-10.5-38.5-33.4-65.7-73-75.2c-42.5-10.3-77.7,3.2-105.2,37c-3.5,4.3-6.6,9-9.9,13.7
	c-3.4-4.7-6.5-9.3-9.9-13.7c-16-20.2-36.2-34-61.8-38.6C70,19.5,23.2,47,6.9,95.4c-3,8.9-4.2,18.4-6.2,27.7c-0.2,1-0.5,1.9-0.7,2.9
	c0,6.3,0,12.5,0,18.8c0.2,0.8,0.5,1.6,0.6,2.5c1.9,21.4,9.9,40.6,21.7,58.3C38,229.3,58,249.3,79.5,267.6
	c33.8,28.9,68.2,57.1,102.4,85.5c6.6,5.5,13.9,5.2,20.8-0.4c26.5-21.8,53.1-43.6,79.5-65.6c23.6-19.7,46.7-40,66.4-63.8
	c14-16.9,25.6-35.1,31.2-56.6c1.9-7.2,2.9-14.6,4.3-22c0-6.3,0-12.5,0-18.8C382.8,119.1,382,112.2,380.2,105.5z"/>
</svg>
