<svg xmlns="http://www.w3.org/2000/svg" viewBox="0 0 400.59 370.75"><defs><style>.cls-1{fill:#407bff;}.cls-10,.cls-13,.cls-18,.cls-2,.cls-7,.cls-9{fill:#fff;}.cls-2{opacity:0.9;}.cls-3{fill:#f5f5f5;}.cls-4{fill:#b65b52;}.cls-5{fill:#b55b52;}.cls-6{fill:#263238;}.cls-7{opacity:0.8;}.cls-10,.cls-8{opacity:0.2;}.cls-11{fill:#a02724;}.cls-12{fill:#ffc3bd;}.cls-13{opacity:0.1;}.cls-14{fill:#ed847e;}.cls-15{opacity:0.5;}.cls-16{fill:#ff8b7b;}.cls-17{fill:#ff5652;}.cls-18{opacity:0.7;}</style></defs><g id="Background_Simple" data-name="Background Simple"><path class="cls-1" d="M184.58,159C257.89,143.86,327.85,10.91,408,73.43c95.41,74.45-18.19,183.43-79.27,228.38-86.18,63.41-193.57,78.54-258.83-28.39-24.32-39.85-18.92-90.68,17.94-123C128.06,115.08,142.58,167.69,184.58,159Z" transform="translate(-44.13 -56.82)"/><path class="cls-2" d="M184.58,159C257.89,143.86,327.85,10.91,408,73.43c95.41,74.45-18.19,183.43-79.27,228.38-86.18,63.41-193.57,78.54-258.83-28.39-24.32-39.85-18.92-90.68,17.94-123C128.06,115.08,142.58,167.69,184.58,159Z" transform="translate(-44.13 -56.82)"/></g><g id="Shadow"><ellipse id="_Path_" data-name="&lt;Path&gt;" class="cls-3" cx="194.72" cy="359.42" rx="193.89" ry="11.32"/></g><g id="Character_1" data-name="Character 1"><path class="cls-4" d="M339.51,150.15l-6.38,22q-.81,2.73-1.66,5.42t-1.68,5.36c-1.18,3.49-2.36,7-3.65,10.12l.73-1.26a12.57,12.57,0,0,1-2.16,3.32,19.8,19.8,0,0,1-3.88,3.31,37.47,37.47,0,0,1-5.31,2.94c-1,.44-2,.89-3,1.29l-1.54.6-.76.29a2.39,2.39,0,0,0-.63.28l-3.16,4a5.1,5.1,0,0,0,3.05,8.17l1.25.23,1.12.19c.75.11,1.48.19,2.22.27,1.47.11,2.95.18,4.45.15a41.56,41.56,0,0,0,4.54-.35,43.05,43.05,0,0,0,4.61-.9,34.92,34.92,0,0,0,9.3-3.93,30.47,30.47,0,0,0,8.27-7.46,2.73,2.73,0,0,0,.21-.3l.53-1a124.1,124.1,0,0,0,5.68-11.63c1.7-3.85,3.16-7.68,4.56-11.54l1-2.89,1-2.9c.63-1.93,1.28-3.86,1.85-5.81s1.17-3.89,1.69-5.85,1-3.89,1.52-6a12.28,12.28,0,0,0-23.75-6.2Z" transform="translate(-44.13 -56.82)"/><path class="cls-1" d="M351.28,134.48c-10.09,5.29-17.6,24.66-17.6,24.66,1.41,6.48,13.85,19.86,21.68,22A36.74,36.74,0,0,0,364,163C365.83,151.23,357,135.34,351.28,134.48Z" transform="translate(-44.13 -56.82)"/><path class="cls-5" d="M314,203.36l2.91,6.46c.46,7.43-9.2,6.36-9.2,6.36l-4.85,1.37a3.77,3.77,0,0,1-4.28-2.31l-2.07-4.5a3.93,3.93,0,0,1,1.51-5.25l4-1.86a7.77,7.77,0,0,1,3.71-.72Z" transform="translate(-44.13 -56.82)"/><polygon class="cls-1" points="258.92 165.91 268.11 164.27 266.2 141.09 252.71 143.5 258.92 165.91"/><polygon class="cls-6" points="251.96 141.38 266.18 138.85 267.01 140.95 251.91 143.64 251.96 141.38"/><polygon class="cls-6" points="252.61 140.14 265.14 137.91 265.92 140.02 252.61 142.39 252.61 140.14"/><polygon class="cls-7" points="262.33 160.66 267.73 159.69 266.43 143.86 259.55 145.08 262.33 160.66"/><polygon class="cls-5" points="279.3 329.59 293.61 333.39 289.36 352.78 277.4 349.63 279.3 329.59"/><rect class="cls-6" x="325.33" y="234.59" width="11.09" height="19.73" rx="1.74" transform="translate(664.55 350.43) rotate(166.85)"/><path class="cls-1" d="M362.21,316.15c10.22-24,24.4-55.38,13.72-79.64l-46.78-2.26s-3,52.53-3.73,76.08c-.67,20.76-7,65.76-7.79,78.45a6.46,6.46,0,0,0,2.92,5.86c3,1.92,12.16,3.31,15.57,3.94a6.49,6.49,0,0,0,7.16-4C348.68,380.85,361.45,339,362.21,316.15Z" transform="translate(-44.13 -56.82)"/><path class="cls-8" d="M379.58,251.82h0c1.18,16.54-5.06,34.71-11.73,51a311,311,0,0,1-2.2-38.51A12.55,12.55,0,0,1,379.58,251.82Z" transform="translate(-44.13 -56.82)"/><polygon class="cls-5" points="355.04 333.26 369.84 333.42 370.49 353.26 358.12 353.15 355.04 333.26"/><path class="cls-1" d="M416.42,312.81c1.35-25.46,3.9-63.56-4.64-75.27l-53.1-1.18s14.57,55.76,20,79.26c4.9,21.2,14.1,67.63,16.94,79.5.42,1.76,3.72,3,5.5,3.3a35.36,35.36,0,0,0,11.77.21c2-.33,6.32-1.8,6.54-3.87C420.78,382.37,422.26,337.66,416.42,312.81Z" transform="translate(-44.13 -56.82)"/><path class="cls-6" d="M416.86,416.22H413.2l-1-1.48-1.92,1.5h-19.8a8.23,8.23,0,0,1,.87-4.65s6.67-1,9.21-4.3a.85.85,0,0,1,.82-.33c2.2.46,8.65,2.11,13.46.38a.8.8,0,0,1,1.08.72A53.31,53.31,0,0,0,416.86,416.22Z" transform="translate(-44.13 -56.82)"/><path class="cls-6" d="M415.38,402.2l1.48-7.09a45.34,45.34,0,0,0-10.37-.77c-6.91.09-9.27,1.09-9.27,1.09l3.17,7.56S404.91,402,415.38,402.2Z" transform="translate(-44.13 -56.82)"/><path class="cls-6" d="M334.15,416.1l-3.55-.9-.59-1.68-2.23,1-19.19-4.87a8.18,8.18,0,0,1,2-4.29s6.72.66,10-1.9a.82.82,0,0,1,.87-.12c2,1,7.87,4.18,12.95,3.68a.8.8,0,0,1,.87,1A52.47,52.47,0,0,0,334.15,416.1Z" transform="translate(-44.13 -56.82)"/><path class="cls-6" d="M336.17,402.15l3.17-6.51a45,45,0,0,0-9.86-3.3c-6.72-1.61-9.25-1.23-9.25-1.23l1.21,8.12S326.07,399.35,336.17,402.15Z" transform="translate(-44.13 -56.82)"/><path class="cls-6" d="M358.44,132.36a211.75,211.75,0,0,1,46.75.74,15.77,15.77,0,0,1,13.13,18.79c-7.27,36.61-1.83,77.47-6.54,85.65-25.84,7.69-75.72,7.14-82.07-1.18-17-15.93,8-64.05,16.18-95.08C347.29,136,353,132.93,358.44,132.36Z" transform="translate(-44.13 -56.82)"/><path class="cls-4" d="M402.46,162.22l2.67,4.33c.91,1.53,1.84,3,2.71,4.59,1.77,3.07,3.41,6.18,4.93,9.25q1.14,2.31,2.08,4.61c.67,1.52,1.25,3,1.75,4.5a35.61,35.61,0,0,1,1.85,8l.14-1.45a67.65,67.65,0,0,1-1,7c-.5,2.48-1.07,5.05-1.76,7.63-.34,1.3-.67,2.61-1.06,3.92s-.73,2.65-1.13,4l-1.17,4c-.37,1.33-.82,2.73-1.13,4l-.13.52a6.21,6.21,0,0,0,10.53,5.78c1.15-1.22,2.12-2.34,3.12-3.54s1.93-2.4,2.84-3.64c1.82-2.48,3.51-5.07,5.12-7.75a92.13,92.13,0,0,0,4.35-8.53,60.58,60.58,0,0,0,3.24-9.75,2.83,2.83,0,0,0,.09-.56l0-.89a49.07,49.07,0,0,0-1.43-15A81,81,0,0,0,435,170.51,112.27,112.27,0,0,0,429.41,159c-1-1.84-2.07-3.66-3.21-5.44-.56-.89-1.13-1.79-1.72-2.67l-.91-1.33c-.33-.47-.59-.84-1-1.43a12.27,12.27,0,0,0-20.37,13.65Z" transform="translate(-44.13 -56.82)"/><path class="cls-1" d="M409.24,134.3c10.72,3.84,20.83,22,20.83,22-.5,6.62-11,21.58-18.43,24.82a36.84,36.84,0,0,1-11.11-16.79C397.13,152.91,403.72,135.94,409.24,134.3Z" transform="translate(-44.13 -56.82)"/><path class="cls-1" d="M386.25,140.44a.53.53,0,0,0,.24-.06c3.64-1.84,5.84-4.57,5.61-6.95a3.63,3.63,0,0,0-3-3.06.54.54,0,0,0-.67.38.54.54,0,0,0,.38.67c1.31.36,2.05,1.1,2.15,2.12.16,1.58-1.33,4-5,5.87a.54.54,0,0,0-.24.73A.55.55,0,0,0,386.25,140.44Z" transform="translate(-44.13 -56.82)"/><path class="cls-1" d="M365.39,140.09a.54.54,0,0,0,.38-.93c-2.06-2-2.75-4.33-1.85-6.17.81-1.67,2.75-2.52,5.07-2.22a.54.54,0,0,0,.14-1.08c-2.8-.36-5.17.72-6.19,2.82-1.1,2.25-.31,5.1,2.06,7.43A.58.58,0,0,0,365.39,140.09Z" transform="translate(-44.13 -56.82)"/><path class="cls-5" d="M363.59,135.06a10,10,0,0,1,4.72-4.47,9.15,9.15,0,0,0,.16-6.15l23-7.33c-1.58,6.47-2.87,11.79-1.49,15.51a2.61,2.61,0,0,1-1.18,3.13c-4.75,2.78-11.95,6.38-19.69,6.16C360.09,141.65,362.11,138.25,363.59,135.06Z" transform="translate(-44.13 -56.82)"/><path class="cls-9" d="M363.73,151.48c-3.52.42-6.82-3-7.37-7.62s1.85-8.72,5.37-9.14,6.82,3,7.37,7.62S367.25,151.06,363.73,151.48Z" transform="translate(-44.13 -56.82)"/><path class="cls-1" d="M366.62,150c-2.8.33-5.45-2.65-5.93-6.67s1.4-7.54,4.19-7.87,5.45,2.65,5.93,6.66S369.41,149.67,366.62,150Z" transform="translate(-44.13 -56.82)"/><path class="cls-8" d="M368.65,125.16l17.29-1c-5.41,5.78-13.6,8-17.34,5.6A9.17,9.17,0,0,0,368.65,125.16Z" transform="translate(-44.13 -56.82)"/><path class="cls-5" d="M396,105.45c-2.75,9.91-4.84,16.59-12,19.78-14.22,6.33-20.58-.38-21.08-10.85-.45-9.42,4.12-24,15.54-26.18C389.7,86.1,398.74,95.54,396,105.45Z" transform="translate(-44.13 -56.82)"/><path class="cls-6" d="M390.57,97.43c-2.82,4.32-1.64,12.23,0,15.14,7.63-2,9-7.32,9-7.32,1,0,3.1-4.77,1.65-10.91S386.84,83.93,379.38,85s-10.74,3.68-11.28,8.14a37.6,37.6,0,0,0,13.1,5.14,19.92,19.92,0,0,1-5-5.28A126.19,126.19,0,0,1,390.57,97.43Z" transform="translate(-44.13 -56.82)"/><path class="cls-1" d="M390.07,82.9c19.77,1.95,23.09,16.61,17.94,20.55s-7.76,2.3-7.76,2.3l-29-17.84C372.85,84.48,380.15,81.92,390.07,82.9Z" transform="translate(-44.13 -56.82)"/><path class="cls-6" d="M372.83,114.75a8.7,8.7,0,0,1-1.36,0,.22.22,0,0,1-.2-.26.26.26,0,0,1,.27-.22,6.86,6.86,0,0,0,5.55-2.16.24.24,0,0,1,.33,0,.24.24,0,0,1,0,.33A7.21,7.21,0,0,1,372.83,114.75Z" transform="translate(-44.13 -56.82)"/><path class="cls-5" d="M398,117.06a10.38,10.38,0,0,1-7.27,3.32c-3.68.09-4.66-3.43-2.91-6.43,1.57-2.71,5.38-6,8.73-4.68S400.32,114.55,398,117.06Z" transform="translate(-44.13 -56.82)"/><path class="cls-1" d="M402.43,104.42c2.39,3.14-.73,6-4.06,6.67-3.22-2.64-6.31-11.34-17.21-14.85S367.7,94.6,367.09,93a4.78,4.78,0,0,1,2.85-5.69C372.69,86.05,388.73,86.42,402.43,104.42Z" transform="translate(-44.13 -56.82)"/><path class="cls-10" d="M402.43,104.42c2.39,3.14-.73,6-4.06,6.67-3.22-2.64-6.31-11.34-17.21-14.85S367.7,94.6,367.09,93a4.78,4.78,0,0,1,2.85-5.69C372.69,86.05,388.73,86.42,402.43,104.42Z" transform="translate(-44.13 -56.82)"/><path class="cls-6" d="M376.67,104.14c-.17.88-.77,1.51-1.35,1.39s-.91-.92-.74-1.8.76-1.51,1.34-1.39S376.83,103.26,376.67,104.14Z" transform="translate(-44.13 -56.82)"/><path class="cls-6" d="M367.5,102.67c-.17.88-.77,1.5-1.34,1.39s-.92-.92-.75-1.8.77-1.51,1.34-1.4S367.66,101.79,367.5,102.67Z" transform="translate(-44.13 -56.82)"/><path class="cls-11" d="M370.4,103.94l-1.32,7.43a8.31,8.31,0,0,1-2.63-.37,1,1,0,0,1-.23-1.73C368.48,107.69,370.4,103.94,370.4,103.94Z" transform="translate(-44.13 -56.82)"/><path class="cls-6" d="M381.84,102.5a.63.63,0,0,0,.26,0,.53.53,0,0,0,.23-.71,5.29,5.29,0,0,0-3.82-3,.52.52,0,0,0-.58.46.54.54,0,0,0,.46.59h0a4.24,4.24,0,0,1,3,2.38A.53.53,0,0,0,381.84,102.5Z" transform="translate(-44.13 -56.82)"/><path class="cls-6" d="M364.42,99.6a.54.54,0,0,0,.48-.15,4.13,4.13,0,0,1,3.54-1.38.52.52,0,0,0,.61-.43.55.55,0,0,0-.43-.61,5.17,5.17,0,0,0-4.49,1.69.53.53,0,0,0,0,.75A.52.52,0,0,0,364.42,99.6Z" transform="translate(-44.13 -56.82)"/><path class="cls-5" d="M413.35,224.37l6.27,3.3c4.94,5.57-3.32,10.68-3.32,10.68l-3,4.06a3.77,3.77,0,0,1-4.79.82l-4.4-2.27a3.92,3.92,0,0,1-2.05-5.06l2-3.93a7.75,7.75,0,0,1,2.48-2.85Z" transform="translate(-44.13 -56.82)"/><path class="cls-1" d="M378.8,150.76c2.88,1.45,6.69-.3,8.51-3.91s1-7.72-1.92-9.17-6.69.3-8.51,3.91S375.92,149.3,378.8,150.76Z" transform="translate(-44.13 -56.82)"/><ellipse class="cls-9" cx="384.65" cy="145.51" rx="8.44" ry="6.73" transform="translate(37.42 366.65) rotate(-63.24)"/><path class="cls-1" d="M325.53,235.84h.06a.28.28,0,0,0,.21-.33c-.11-.48-.23-1-.35-1.43-1.08-4.28-2-8,10.19-11.08,9.24-2.35,12.5-17.31,15.38-30.51,1.45-6.67,2.82-13,4.79-16.48,2.9-5.17,7.73-9.58,12.39-13.84s9.06-8.27,11.14-12.69a.26.26,0,0,0-.13-.36.27.27,0,0,0-.36.13c-2,4.32-6.4,8.3-11,12.52s-9.56,8.73-12.5,14c-2,3.59-3.4,9.93-4.86,16.63-2.84,13-6.06,27.84-15,30.1-12.74,3.24-11.69,7.37-10.59,11.74.12.47.24.94.34,1.42A.27.27,0,0,0,325.53,235.84Z" transform="translate(-44.13 -56.82)"/><path class="cls-1" d="M357.86,172.69a.27.27,0,0,0,.24-.15c4.78-9.31,3.73-15.36,3-19.79a20.27,20.27,0,0,1-.42-3.38.28.28,0,1,0-.55,0,21.21,21.21,0,0,0,.43,3.48c.76,4.34,1.79,10.29-2.9,19.44a.27.27,0,0,0,.12.37A.27.27,0,0,0,357.86,172.69Z" transform="translate(-44.13 -56.82)"/></g><g id="Character_2" data-name="Character 2"><path class="cls-6" d="M263,113.91c4,4.56,5,10,4.75,23.34s8.13,20.41,2.14,25.86-32.09,2.69-38.19-1.25,6.56-23.89,4.12-32-2-16,5.28-19C247.14,108.39,256.81,106.79,263,113.91Z" transform="translate(-44.13 -56.82)"/><path class="cls-6" d="M266.87,167.33c9.82,6.28,23.16,37.07,16,44.63s-26.91,6.64-33.62-.48S255.93,160.35,266.87,167.33Z" transform="translate(-44.13 -56.82)"/><path class="cls-12" d="M270.16,385.15l10.67.79c-1.48,8.49-2.87,21.9-2.87,21.9H269.5S270.47,391,270.16,385.15Z" transform="translate(-44.13 -56.82)"/><path class="cls-12" d="M214.16,385.15l10.59.79c-2.37,8.49-5.19,21.9-5.19,21.9H211.1S213.86,391,214.16,385.15Z" transform="translate(-44.13 -56.82)"/><path class="cls-1" d="M260.34,416.23c7.35,0,6.83-.11,11-.25,3.55-.13,4.36.31,7.21.25,2.38-.05,2.46-2.33,1.92-4.94-.21-1-.52-2.18-.82-3.62a1.75,1.75,0,0,0-1.74-1.42h-8.6a2,2,0,0,0-1.63.82,12.36,12.36,0,0,1-8.54,4.8C255.11,412.4,257.41,416.23,260.34,416.23Z" transform="translate(-44.13 -56.82)"/><path class="cls-1" d="M198.33,412.91c7.09,1.22,7.89.89,11.93,1.45,3.46.47,3.74,1.27,7.2,1.87,2.29.4,3.6-2.06,3.51-4.09-.06-1.22-.31-2.65-.29-4.15a1.57,1.57,0,0,0-1.35-1.61L212,405.1a2.18,2.18,0,0,0-1.67.42,15.62,15.62,0,0,1-11.72,3.26C194.63,408.4,195.49,412.42,198.33,412.91Z" transform="translate(-44.13 -56.82)"/><path class="cls-6" d="M225.66,219.28s-6.68,52-6.1,85c-2.53,31-6.61,90.27-6.61,90.27.12,1.59,8.48,1,10,0,0,0,19.13-40,16-90.27,21.27-52.43,20-85,20-85Z" transform="translate(-44.13 -56.82)"/><path class="cls-8" d="M253,261.26c-1.65,6.77-3.77,14.28-6.48,22.45-.79-16.46-5.24-38.49-5.39-39.24Z" transform="translate(-44.13 -56.82)"/><path class="cls-6" d="M234.72,219.28s15.2,58.68,21.22,87.49c6.33,30.26,15.19,67.68,13.43,87.78,1.7,1,7.75,1.07,11.17,0,0,0,13-57.31-3.54-86.44,6-71.68-13-88.83-13-88.83Z" transform="translate(-44.13 -56.82)"/><path class="cls-6" d="M268.65,390.37a27.88,27.88,0,0,1-.51,4.13.83.83,0,0,0,.7,1c4.07.66,10-.29,11.89-.63a.86.86,0,0,0,.71-.71l.72-3.86a.82.82,0,0,0-.83-1l-11.81.22A.89.89,0,0,0,268.65,390.37Z" transform="translate(-44.13 -56.82)"/><path class="cls-13" d="M268.65,390.37a27.88,27.88,0,0,1-.51,4.13.83.83,0,0,0,.7,1c4.07.66,10-.29,11.89-.63a.86.86,0,0,0,.71-.71l.72-3.86a.82.82,0,0,0-.83-1l-11.81.22A.89.89,0,0,0,268.65,390.37Z" transform="translate(-44.13 -56.82)"/><path class="cls-6" d="M212.14,390.19c-.11,1.07-.32,3-.52,4.41a.83.83,0,0,0,.71.95,59.65,59.65,0,0,0,11-.13.89.89,0,0,0,.78-.65l1-3.86a.83.83,0,0,0-.77-1.06l-11.31-.45A.88.88,0,0,0,212.14,390.19Z" transform="translate(-44.13 -56.82)"/><path class="cls-13" d="M212.14,390.19c-.11,1.07-.32,3-.52,4.41a.83.83,0,0,0,.71.95,59.65,59.65,0,0,0,11-.13.89.89,0,0,0,.78-.65l1-3.86a.83.83,0,0,0-.77-1.06l-11.31-.45A.88.88,0,0,0,212.14,390.19Z" transform="translate(-44.13 -56.82)"/><path class="cls-12" d="M225.63,166.38c-2.65,4.29-5.19,8.68-7.72,13.06s-5,8.82-7.43,13.24L208.66,196l-.46.84c0,.05.07,0,.19-.14a3.26,3.26,0,0,1,.62-.44,3.22,3.22,0,0,1,1-.37,1.85,1.85,0,0,1,1.26.13c.07.08-.14.06-.4-.05a11,11,0,0,1-2.2-1.34c-3.33-2.55-6.78-6.35-10.08-9.87l-.12-.12a3.52,3.52,0,0,0-5.84,3.71,54,54,0,0,0,3.53,7.3c.67,1.18,1.4,2.34,2.2,3.5a31.61,31.61,0,0,0,2.67,3.44,19.75,19.75,0,0,0,3.75,3.4,12.61,12.61,0,0,0,3,1.55,9.54,9.54,0,0,0,5,.34,9,9,0,0,0,2.79-1.1,10.12,10.12,0,0,0,2.06-1.67,12.73,12.73,0,0,0,1.31-1.67l.53-.8,2.13-3.17q4.22-6.37,8.26-12.86c2.67-4.34,5.3-8.68,7.79-13.15a7,7,0,0,0-12.09-7.11Z" transform="translate(-44.13 -56.82)"/><path class="cls-1" d="M233.71,158.7c-7.32,1.38-11.21,7.59-18.42,20.58,1.67,4.84,13.05,9.47,13.05,9.47S245.79,168.16,233.71,158.7Z" transform="translate(-44.13 -56.82)"/><path class="cls-12" d="M262,210.13a76.84,76.84,0,0,0,1.12,9.15h-37l-.4-9.43S254.22,208.23,262,210.13Z" transform="translate(-44.13 -56.82)"/><path class="cls-1" d="M222.1,171.66a158.73,158.73,0,0,0,.26,17.08c.31,7.42-1.1,9.24,0,21.39,4.06,2.38,30.79,2.29,43.93.59-.8-10.51-1.78-17.61,5.34-41.27,1.66-5.48-2-10.75-7.91-11.31-1.57-.15-3.24-.28-4.95-.36a135.32,135.32,0,0,0-18,0c-2,.17-4,.4-5.93.66C227.84,159.35,222.32,165.09,222.1,171.66Z" transform="translate(-44.13 -56.82)"/><path class="cls-6" d="M266.05,210.73a28,28,0,0,0,3.9-.26.51.51,0,1,0-.15-1c-5.05.76-14.45.07-19.63-4.92-2.74-2.64-3.89-6.15-3.4-10.43,1.6-14.2,14.11-35.25,16-36.14a.51.51,0,0,0,.48-.43.5.5,0,0,0-.43-.57,1,1,0,0,0-.75.27c-3,2.3-14.74,23.1-16.27,36.76-.52,4.6.72,8.39,3.7,11.26C253.75,209.4,260.72,210.73,266.05,210.73Z" transform="translate(-44.13 -56.82)"/><path class="cls-12" d="M257.53,137.51c-1.57,5.8-3.49,16.42.28,20.29,0,0,2.89,5.44-14.21,4.56-12-.62-3.81-4.56-3.81-4.56,6.58-1.54,6.77-6.34,6-10.84Z" transform="translate(-44.13 -56.82)"/><path class="cls-8" d="M252.74,141.37l-7,5.58a18.46,18.46,0,0,1,.32,3.2c2.5-.36,6.09-3.07,6.55-5.65A9,9,0,0,0,252.74,141.37Z" transform="translate(-44.13 -56.82)"/><path class="cls-12" d="M262.48,125.87c-1.76,9.37-2.3,13.36-7.64,17.85-8,6.75-19.08,3.18-20.13-6.37-1-8.59,2.08-22.45,11.73-25.55A12.2,12.2,0,0,1,262.48,125.87Z" transform="translate(-44.13 -56.82)"/><path class="cls-6" d="M242.92,127.89a.53.53,0,0,0,.37-.9,4.3,4.3,0,0,0-4.46-.52.53.53,0,0,0-.15.73.52.52,0,0,0,.73.16,3.35,3.35,0,0,1,3.13.38A.55.55,0,0,0,242.92,127.89Z" transform="translate(-44.13 -56.82)"/><path class="cls-6" d="M247.65,127.43c-.11.8-.61,1.41-1.12,1.37s-.83-.71-.71-1.5.61-1.4,1.12-1.37S247.77,126.64,247.65,127.43Z" transform="translate(-44.13 -56.82)"/><path class="cls-6" d="M238.09,126.87c-.11.79-.62,1.4-1.12,1.37s-.83-.71-.72-1.5.62-1.41,1.13-1.37S238.21,126.08,238.09,126.87Z" transform="translate(-44.13 -56.82)"/><path class="cls-6" d="M237.6,125.43l-1.79-.69S236.55,126.3,237.6,125.43Z" transform="translate(-44.13 -56.82)"/><path class="cls-14" d="M240.57,128.37a23.51,23.51,0,0,1-3.5,4.85,3.18,3.18,0,0,0,2.69.73Z" transform="translate(-44.13 -56.82)"/><path class="cls-6" d="M243.81,137.21a8.24,8.24,0,0,1-1.32,0,.21.21,0,0,1-.2-.25.26.26,0,0,1,.26-.22,6.67,6.67,0,0,0,5.37-2.08.22.22,0,0,1,.32-.05.23.23,0,0,1,0,.33A7,7,0,0,1,243.81,137.21Z" transform="translate(-44.13 -56.82)"/><path class="cls-12" d="M263.86,131.82a6.5,6.5,0,0,1-3.21,4.21c-2,1-3.44-1.26-3.22-3.85.19-2.33,1.48-5.66,3.67-5.55S264.5,129.46,263.86,131.82Z" transform="translate(-44.13 -56.82)"/><path class="cls-6" d="M250.32,123.18A.43.43,0,0,1,250,123a3.43,3.43,0,0,0-3-1.17.43.43,0,0,1-.52-.36.51.51,0,0,1,.4-.55,4.27,4.27,0,0,1,3.85,1.42.47.47,0,0,1,0,.66A.49.49,0,0,1,250.32,123.18Z" transform="translate(-44.13 -56.82)"/><path class="cls-6" d="M236.27,120.71a.42.42,0,0,1-.32-.1.47.47,0,0,1,0-.66,4.9,4.9,0,0,1,4-1.76.42.42,0,0,1,.37.51.51.51,0,0,1-.54.41,3.89,3.89,0,0,0-3.12,1.43A.51.51,0,0,1,236.27,120.71Z" transform="translate(-44.13 -56.82)"/><path class="cls-6" d="M247.16,126l-1.79-.68S246.12,126.86,247.16,126Z" transform="translate(-44.13 -56.82)"/><path class="cls-12" d="M245.92,188.25l3-.29a3.43,3.43,0,0,1,2.93,1.17l3.41,3.92a6.42,6.42,0,0,1,1.4,5.73l-.3,1.25c-4.86.81-10.7-1.9-10.7-1.9l-1.75-.58a2.86,2.86,0,0,1-1.9-3.61l1.11-3.48A3.29,3.29,0,0,1,245.92,188.25Z" transform="translate(-44.13 -56.82)"/><path class="cls-12" d="M183.84,184.56l1.46,2.57a3.47,3.47,0,0,0,2.65,1.73l5.17.53a6.42,6.42,0,0,0,5.49-2.15l.85-1c-2.13-4.43-7.71-7.66-7.71-7.66l-1.48-1.09a2.87,2.87,0,0,0-4.05.52L184,181A3.32,3.32,0,0,0,183.84,184.56Z" transform="translate(-44.13 -56.82)"/><path class="cls-12" d="M262.7,174.19l.53,1.39.56,1.54c.37,1,.74,2.09,1.09,3.14.7,2.12,1.31,4.26,1.88,6.4s1,4.29,1.4,6.43.62,4.28.8,6.42l.14-1.34a3.4,3.4,0,0,1,.56-1,2.73,2.73,0,0,1,1.15-.85c.67-.21.53,0,.1.09a8.37,8.37,0,0,1-1.84,0c-.74-.06-1.55-.19-2.38-.34-1.68-.3-3.44-.75-5.22-1.24s-3.63-1.06-5.37-1.56l-.2-.06a3.54,3.54,0,0,0-3.25,6.1,47.13,47.13,0,0,0,5.08,3.72,46.19,46.19,0,0,0,5.66,3.08,32.77,32.77,0,0,0,3.27,1.23,17.65,17.65,0,0,0,3.95.8,11.27,11.27,0,0,0,5.8-.94,9.11,9.11,0,0,0,3.36-2.73,10.15,10.15,0,0,0,1.72-3.66,5.06,5.06,0,0,0,.13-.94v-.39a58.68,58.68,0,0,0-.18-8.08c-.1-1.34-.28-2.65-.44-4s-.43-2.61-.7-3.9a73.34,73.34,0,0,0-1.95-7.62c-.41-1.25-.81-2.49-1.28-3.72-.24-.62-.47-1.24-.73-1.86s-.51-1.19-.87-2a7,7,0,0,0-12.93,5.41Z" transform="translate(-44.13 -56.82)"/><path class="cls-1" d="M264.12,158.23c6.46,1,9.05,3,14.33,15.94-2.4,4.84-13.62,9.48-13.62,9.48S257.4,166.83,264.12,158.23Z" transform="translate(-44.13 -56.82)"/><path class="cls-6" d="M246.53,110.32c-2.63,3.24,7,18.45,18.19,23C268.64,123.69,261,107.82,246.53,110.32Z" transform="translate(-44.13 -56.82)"/><path class="cls-6" d="M254.62,109.82c1.73-1.48,3.39-7.12-2.92-7.7s-13,1.89-8.47,8.52C253.31,110.11,254.62,109.82,254.62,109.82Z" transform="translate(-44.13 -56.82)"/><path class="cls-1" d="M242.94,110.7l.15,0a30.89,30.89,0,0,1,12.12-.94.49.49,0,0,0,.57-.42.5.5,0,0,0-.42-.57,31.31,31.31,0,0,0-12.57,1,.51.51,0,0,0-.33.63A.5.5,0,0,0,242.94,110.7Z" transform="translate(-44.13 -56.82)"/><path class="cls-1" d="M225.59,222.11a178.19,178.19,0,0,0,39.85-.08.9.9,0,0,0,.69-1.26c-.33-.77-.65-1.53-1-2.3a.84.84,0,0,0-.85-.53,174,174,0,0,1-38.31,0,.87.87,0,0,0-.93.8l-.24,2.38A.89.89,0,0,0,225.59,222.11Z" transform="translate(-44.13 -56.82)"/><path class="cls-6" d="M242.17,127.66a4.17,4.17,0,1,0,4.31-4A4.15,4.15,0,0,0,242.17,127.66Z" transform="translate(-44.13 -56.82)"/><g class="cls-15"><path class="cls-9" d="M245.94,123.67l4.54,4.53a4,4,0,0,1-.72,2L244,124.38A4,4,0,0,1,245.94,123.67Z" transform="translate(-44.13 -56.82)"/><path class="cls-9" d="M243.31,125l5.88,5.88a4.14,4.14,0,0,1-2.55,1.12l-4.46-4.46A4,4,0,0,1,243.31,125Z" transform="translate(-44.13 -56.82)"/></g><path class="cls-6" d="M231.27,126.56a4.17,4.17,0,1,0,4.32-4A4.18,4.18,0,0,0,231.27,126.56Z" transform="translate(-44.13 -56.82)"/><g class="cls-15"><path class="cls-9" d="M235.05,122.57l4.54,4.53a4.09,4.09,0,0,1-.72,2l-5.78-5.78A4,4,0,0,1,235.05,122.57Z" transform="translate(-44.13 -56.82)"/><path class="cls-9" d="M232.41,123.86l5.89,5.87a4.11,4.11,0,0,1-2.55,1.12l-4.46-4.46A4,4,0,0,1,232.41,123.86Z" transform="translate(-44.13 -56.82)"/></g></g><g id="Character_3" data-name="Character 3"><path class="cls-6" d="M98.11,129c-8.93,1.89-9.38,5.53-7.58,7.39,2,2,8.18,0,8.18,0Z" transform="translate(-44.13 -56.82)"/><path class="cls-6" d="M124.83,303.4c-6.92-28.49-17.56-55.94-19.2-87.93l21-.34,16.14-.26s4.72,50.1,6.7,91.07c.55,11.34,6.86,43.39,8.66,68.3.65,9,4.64,13.33,3.86,19.3l-19.41,9.93c-7.28-3.41-4.44-13.47-5.36-18.4C132.75,361,124,334.8,124.83,303.4Z" transform="translate(-44.13 -56.82)"/><path class="cls-8" d="M121.88,292.05c-5.39-19.93-11.81-39.71-14.78-61.3C130.88,241.3,130.12,274.55,121.88,292.05Z" transform="translate(-44.13 -56.82)"/><path class="cls-6" d="M142,412.43l1.29-.54L180.46,406c1.3,1.05.67,5.14-4.32,5.82s-12.71,1.55-17.84,2.25-9.47,1.49-14.3,2.15C142.61,416.43,141.4,414.5,142,412.43Z" transform="translate(-44.13 -56.82)"/><path class="cls-1" d="M140.28,397.87c-.6,4.61-.16,11.79,1.42,14.45.07,1,.9.9,1.88.77,5.32-.73,11.39-1.74,16.52-2.53,6-.92,9.88-.88,16.91-1.95,4.26-.66,4.24-3.71,2.44-4.39-4.72-1.78-12.16-1.86-17.41-6.43,0,0,3.6-4.54.78-6.38s-10.43-1.3-10.48,1.37a11.61,11.61,0,0,0,1.07,4.9S142.16,394.61,140.28,397.87Z" transform="translate(-44.13 -56.82)"/><path class="cls-1" d="M127,149.43c.65,1.26,1.36,2.73,2,4.13s1.33,2.83,2,4.26q1.93,4.27,3.65,8.59c1.14,2.86,2.19,5.73,3.08,8.53a49.44,49.44,0,0,1,1.89,7.81l.14-2.56c-.27,1.8-.56,3.61-.9,5.39s-.7,3.56-1.11,5.3-.85,3.48-1.34,5.16c-.25.83-.5,1.66-.77,2.45l-.4,1.16-.2.53a2.9,2.9,0,0,0-.12.34,8.12,8.12,0,1,0,14.5,7.31l.5-1,.38-.8.69-1.53c.45-1,.85-2,1.25-3,.78-2,1.47-3.94,2.13-5.92s1.25-4,1.81-5.93,1.07-4,1.57-5.95a6.3,6.3,0,0,0,.18-2l0-.54a65.67,65.67,0,0,0-2-11.35c-.88-3.47-1.9-6.8-3-10.06s-2.25-6.47-3.47-9.64q-.92-2.37-1.87-4.73c-.65-1.59-1.27-3.1-2-4.78a10.29,10.29,0,1,0-18.84,8.26C126.78,149.06,126.88,149.26,127,149.43Z" transform="translate(-44.13 -56.82)"/><path class="cls-8" d="M127,149.43c.65,1.26,1.36,2.73,2,4.13s1.33,2.83,2,4.26q1.93,4.27,3.65,8.59c1.14,2.86,2.19,5.73,3.08,8.53a49.44,49.44,0,0,1,1.89,7.81l.14-2.56c-.27,1.8-.56,3.61-.9,5.39s-.7,3.56-1.11,5.3-.85,3.48-1.34,5.16c-.25.83-.5,1.66-.77,2.45l-.4,1.16-.2.53a2.9,2.9,0,0,0-.12.34,8.12,8.12,0,1,0,14.5,7.31l.5-1,.38-.8.69-1.53c.45-1,.85-2,1.25-3,.78-2,1.47-3.94,2.13-5.92s1.25-4,1.81-5.93,1.07-4,1.57-5.95a6.3,6.3,0,0,0,.18-2l0-.54a65.67,65.67,0,0,0-2-11.35c-.88-3.47-1.9-6.8-3-10.06s-2.25-6.47-3.47-9.64q-.92-2.37-1.87-4.73c-.65-1.59-1.27-3.1-2-4.78a10.29,10.29,0,1,0-18.84,8.26C126.78,149.06,126.88,149.26,127,149.43Z" transform="translate(-44.13 -56.82)"/><path class="cls-1" d="M105.75,411.08" transform="translate(-44.13 -56.82)"/><path class="cls-6" d="M76.82,384.6c3.71-24.35,4.07-63.27,11.72-82,1.58-28.38-3.66-61.45,3.42-87.1l38.91-.6s-6.19,51.08-15.25,92c-1.68,7.57-8.34,45.08-14.93,69.87-2.39,9,0,13.78-2.73,19.56l-22.12,7.17C69.93,399.12,76.06,389.58,76.82,384.6Z" transform="translate(-44.13 -56.82)"/><path class="cls-6" d="M73.27,412.21l1.41-.36,38-.77c1,1.21-.89,5.16-6,5.16s-12.83-.19-18-.19-9.67.19-14.56.19C72.7,416.24,72.1,414.18,73.27,412.21Z" transform="translate(-44.13 -56.82)"/><path class="cls-1" d="M75.89,397.63c-2,4.47-3.7,11.6-3,14.44-.23,1,.61,1,1.6,1,5.39,0,11.6-.19,16.83-.27,6.12-.09,9.88.47,17,.35,4.34-.06,5.21-3,3.69-4-4.44-2.93-11.28-3.47-15-8.69,0,0,4.88-4,2.68-6.18s-12.2-3.23-13.05-.6a11.26,11.26,0,0,0-.44,5S78.7,394.67,75.89,397.63Z" transform="translate(-44.13 -56.82)"/><path class="cls-1" d="M47.37,411.08" transform="translate(-44.13 -56.82)"/><path class="cls-9" d="M99.36,134.06a161.12,161.12,0,0,1,33.39-.14A15.94,15.94,0,0,1,147,148.65c1.21,18.53-4.21,36.9-4.18,66.22-4.86,5.52-30.26,7.68-51.33.77-3.13-13,0-35.21-4.62-65.25A14.19,14.19,0,0,1,99.36,134.06Z" transform="translate(-44.13 -56.82)"/><path class="cls-16" d="M106.55,111.09l14.12,11.24c-1.83,5-2.39,10.35,6.14,12.46,2.26,2.91,1,7.1-4.65,10.23-9.21-2.22-14.43-4.78-17.78-9.75C105.61,131.48,107.71,118,106.55,111.09Z" transform="translate(-44.13 -56.82)"/><path class="cls-8" d="M112.31,115.67l8.35,6.65a18.86,18.86,0,0,0-1,3.56c-3.31.23-7.87-3.07-8-6A11.31,11.31,0,0,1,112.31,115.67Z" transform="translate(-44.13 -56.82)"/><path class="cls-6" d="M125.61,90.52c7.7,6.91,3.18,11.07,3.79,15C125,103.19,120.91,96.11,125.61,90.52Z" transform="translate(-44.13 -56.82)"/><path class="cls-16" d="M104.55,103.29c1.27,8.75,1.57,13.93,6.39,18,7.25,6.17,17.78,1.14,19.15-7.83,1.23-8.08-1.05-21-10-23.73A12.18,12.18,0,0,0,104.55,103.29Z" transform="translate(-44.13 -56.82)"/><path class="cls-6" d="M107,109.54c5.71-.6,3.66-3.32,2.85-5.57s2.34-5.25,1.85-7.17c3-1,5.22-1.69,5.76-3.13,2.83,1.44,11.37,4.51,14.55,0S133.38,81.1,124.39,83c-5.78,1.2-10.8,3.87-13,1.94s-7.29-.72-8.69,3.48-8.42,3.18-6.92,7.33,5.11,3.43,5.11,3.43S100.57,107.92,107,109.54Z" transform="translate(-44.13 -56.82)"/><path class="cls-6" d="M99.16,92.48a.27.27,0,0,0,.26-.19c1-3.34,3.3-4.74,8.61-7.37,2.51-1.24,3.93-.44,5.31.34s2.88,1.61,5.24-.09c3.45-2.49,7.28-3.72,9.53-3a3,3,0,0,1,2,1.89.27.27,0,0,0,.5-.2,3.53,3.53,0,0,0-2.39-2.21c-2.44-.72-6.36.51-10,3.13-2.08,1.5-3.28.83-4.66,0a5.37,5.37,0,0,0-5.82-.34c-5.45,2.7-7.78,4.15-8.89,7.69a.28.28,0,0,0,.18.34Z" transform="translate(-44.13 -56.82)"/><path class="cls-6" d="M126,113.85s-3.08-1-11.75-1.69c1,2.79,2.87,5.16,7.31,5.48A3.8,3.8,0,0,0,126,113.85Z" transform="translate(-44.13 -56.82)"/><path class="cls-17" d="M119.56,115.34a8.38,8.38,0,0,1,4.83,1.71,4.37,4.37,0,0,1-2.78.59,8.34,8.34,0,0,1-4.82-1.71A4.34,4.34,0,0,1,119.56,115.34Z" transform="translate(-44.13 -56.82)"/><path class="cls-9" d="M125.65,113.74c-.25.56-.5,1.12-1.37,1.24a45.79,45.79,0,0,1-7.67-1.3,2.7,2.7,0,0,1-2-1.49A70.55,70.55,0,0,1,125.65,113.74Z" transform="translate(-44.13 -56.82)"/><path class="cls-16" d="M102.08,108.67a7.62,7.62,0,0,0,3.76,4.48c2.4,1.22,4.15-.79,4-3.33-.19-2.28-1.66-5.67-4.29-5.84A3.48,3.48,0,0,0,102.08,108.67Z" transform="translate(-44.13 -56.82)"/><path class="cls-6" d="M117.92,103.61c0,.72.48,1.26,1,1.22s.8-.66.74-1.37-.49-1.27-1-1.22S117.86,102.9,117.92,103.61Z" transform="translate(-44.13 -56.82)"/><path class="cls-6" d="M126.48,103.4c.06.72.49,1.27,1,1.22s.8-.66.75-1.37-.49-1.26-1-1.22S126.42,102.69,126.48,103.4Z" transform="translate(-44.13 -56.82)"/><path class="cls-17" d="M123.66,104.37a25.41,25.41,0,0,0,3.93,5.81c-1.17,1.3-3.37.95-3.37.95Z" transform="translate(-44.13 -56.82)"/><path class="cls-6" d="M115.51,101.33a.39.39,0,0,1-.21,0,.42.42,0,0,1-.24-.55,4.29,4.29,0,0,1,2.86-2.61.44.44,0,0,1,.5.33.43.43,0,0,1-.33.5h0a3.4,3.4,0,0,0-2.24,2.09A.44.44,0,0,1,115.51,101.33Z" transform="translate(-44.13 -56.82)"/><path class="cls-6" d="M130.35,100.2a.45.45,0,0,1-.34-.2,3.31,3.31,0,0,0-2.55-1.66.43.43,0,0,1-.41-.43.42.42,0,0,1,.44-.41,4.14,4.14,0,0,1,3.24,2,.43.43,0,0,1-.38.65Z" transform="translate(-44.13 -56.82)"/><path class="cls-6" d="M103.4,132.09c1.35-.15,2.34-1.19,4.51,1s6.67,8.17,8.41,17.85a245.9,245.9,0,0,1,3,36.38c-.12,9,1.1,25.92-2.39,34.88a2.55,2.55,0,0,1-2.12,1s1.34-32.35-.53-50.84S103.4,132.09,103.4,132.09Z" transform="translate(-44.13 -56.82)"/><path class="cls-1" d="M103.16,131.6c4.45,0,9.86,8.55,12,21S118,183.33,118,191.08s.53,18.16-.54,22.25-1.16,10.56-3,11.16S93.54,223,87.77,213.33c.84-7.21-1.42-22.66-.7-29.16s-2.55-24.72-2.31-34S88.25,131.6,103.16,131.6Z" transform="translate(-44.13 -56.82)"/><path class="cls-8" d="M85.88,166.23l9.47-11.11c.35,8.26-7,28.86-8.42,32.67a35.25,35.25,0,0,1,.14-3.63C87.47,180.59,86.66,173.46,85.88,166.23Z" transform="translate(-44.13 -56.82)"/><path class="cls-6" d="M114.05,143c.39-4.93-4.28-14.09-8.79-15.73s-10.32-.37-9.88,5.4C105,137,111,142.94,114.05,143Z" transform="translate(-44.13 -56.82)"/><path class="cls-6" d="M129.2,222.23c-2.08,0-2-1.26-1.13-7s2.21-24.54,2.15-29.59-.68-39.82-2.26-44.56c-2-6-3-7-1.44-7.11a4.06,4.06,0,0,1,2.32.5s5,25.37,4.51,51.71S129.2,222.23,129.2,222.23Z" transform="translate(-44.13 -56.82)"/><path class="cls-1" d="M129.22,133.15a1.81,1.81,0,0,0-1.72,2.53c3.36,7.51,4.53,23.24,4,46.26-.55,26.1-3.08,37.52-3.1,41.43,5.51.79,14.41-2.58,16.21-7s4.72-28.64,4.21-36.32,1.32-26.08-1.82-34.78C144.08,137.05,144.56,133.52,129.22,133.15Z" transform="translate(-44.13 -56.82)"/><path class="cls-6" d="M126.75,137.63c-.92-3.37-6.59-3.93-7-8.6,9-2.18,10.48,1.63,13,4.28-1.26,5.13-4,12.69-4,12.69S127.78,141.37,126.75,137.63Z" transform="translate(-44.13 -56.82)"/><path class="cls-1" d="M111.1,245.86l3.72,1.82a3.7,3.7,0,0,0,5-1.7h0a3.7,3.7,0,0,0-1.7-4.94l-3.73-1.82a3.69,3.69,0,0,0-4.94,1.7h0A3.7,3.7,0,0,0,111.1,245.86Z" transform="translate(-44.13 -56.82)"/><path class="cls-1" d="M50,211.9l3.72,1.82a3.7,3.7,0,0,0,4.95-1.7h0a3.7,3.7,0,0,0-1.7-4.94l-3.73-1.82a3.69,3.69,0,0,0-4.94,1.7h0A3.69,3.69,0,0,0,50,211.9Z" transform="translate(-44.13 -56.82)"/><path class="cls-1" d="M127.28,211.27a38.91,38.91,0,0,1,18.82,22.22,8.56,8.56,0,0,1-5.34,10.94c-6.81,2.3-17.65,4.14-29.1-1.18-14.75-6.83-50.64-27.79-62.9-35.33a9.71,9.71,0,0,1-4.46-10.08L45,194a10.56,10.56,0,0,1,2.46-5l2.57-2.91a9.71,9.71,0,0,1,10.69-2.69C74.23,188.41,112.82,203.84,127.28,211.27Z" transform="translate(-44.13 -56.82)"/><path class="cls-18" d="M127.28,211.27a38.91,38.91,0,0,1,18.82,22.22,8.56,8.56,0,0,1-5.34,10.94c-6.81,2.3-17.65,4.14-29.1-1.18-14.75-6.83-50.64-27.79-62.9-35.33a9.71,9.71,0,0,1-4.46-10.08L45,194a10.56,10.56,0,0,1,2.46-5l2.57-2.91a9.71,9.71,0,0,1,10.69-2.69C74.23,188.41,112.82,203.84,127.28,211.27Z" transform="translate(-44.13 -56.82)"/><path class="cls-1" d="M87,139l-1.57,2.35L84,143.61q-1.45,2.29-2.86,4.62c-1.86,3.1-3.66,6.25-5.37,9.52S72.43,164.38,71,168c-.73,1.82-1.41,3.7-2,5.73a37.11,37.11,0,0,0-1.42,6.76l0,.33a5.07,5.07,0,0,0,0,.55,64.26,64.26,0,0,0,1.08,11.35,86.71,86.71,0,0,0,2.66,10.53,105.67,105.67,0,0,0,3.71,9.91c.69,1.61,1.41,3.21,2.18,4.79.38.79.78,1.58,1.19,2.37l.62,1.19.71,1.3a8.12,8.12,0,0,0,14.48-7.31l-.22-.47L93,213.16c-.3-.68-.6-1.36-.89-2-.58-1.38-1.13-2.78-1.64-4.19a89,89,0,0,1-2.68-8.51,69.14,69.14,0,0,1-1.67-8.49,44.61,44.61,0,0,1-.33-8.09l-.06.89a20.34,20.34,0,0,1,.94-3.3c.46-1.26,1-2.6,1.65-3.95,1.28-2.72,2.8-5.5,4.45-8.26S96.17,161.7,98,159q1.39-2,2.82-4l1.44-2,1.41-1.89.15-.2a10.29,10.29,0,1,0-16.47-12.33C87.25,138.67,87.13,138.84,87,139Z" transform="translate(-44.13 -56.82)"/><path class="cls-6" d="M94,218.42a10.37,10.37,0,0,1,.85,4.05,1.81,1.81,0,0,1-1,1.71c-1.88.91-5.92,2.75-8.64,3.16a1.79,1.79,0,0,1-1.64-.66,10.29,10.29,0,0,1-1.85-3.53,1.88,1.88,0,0,1,.2-1.53c2.49-4.15,8.2-4.35,10.53-4.25A1.83,1.83,0,0,1,94,218.42Z" transform="translate(-44.13 -56.82)"/><path class="cls-16" d="M93.93,223.33l1.79,6.55L84.9,229.7a19.36,19.36,0,0,1-.07-4.26,5.37,5.37,0,0,1,6.32-4.64h0A3.5,3.5,0,0,1,93.93,223.33Z" transform="translate(-44.13 -56.82)"/><path class="cls-16" d="M91.14,238.06l-3.78-.7a3.13,3.13,0,0,1-2.55-3.14l.09-4.52,10.82.18-.92,5.61A3.13,3.13,0,0,1,91.14,238.06Z" transform="translate(-44.13 -56.82)"/><path class="cls-9" d="M102.84,160.15c.21,3.45,2.78,6.28,5.73,6.32s5.17-2.73,5-6.18-2.78-6.28-5.73-6.32S102.62,156.7,102.84,160.15Z" transform="translate(-44.13 -56.82)"/></g></svg>